<svg id="Layer_1" data-name="Layer 1" xmlns="http://www.w3.org/2000/svg" viewBox="0 0 912.98 148.73"><defs><style>.cls-1{fill:#fff;}</style></defs><title>PDXwordLogo_White</title><path class="cls-1" d="M536.53,365.1a32.8,32.8,0,0,0-18.37-5.26,39,39,0,0,0-18.85,4.7,49.86,49.86,0,0,0-15.79,14.23V362.22H471.64v92.36h11.88V420.71q0-18.27,1.7-25.13a33.37,33.37,0,0,1,11.25-17.65,29.32,29.32,0,0,1,19.32-7.13q9.41,0,15.28,4.62T539,389.2c.88,3.57,1.33,10.67,1.33,21.32v44.06h11.88V407q0-18.84-3.82-27.76A31.38,31.38,0,0,0,536.53,365.1Z" transform="translate(-155.53 -332.46)"/><path class="cls-1" d="M643.8,379.2a46.7,46.7,0,0,0-16.17-14.52A43.59,43.59,0,0,0,607,359.84,45.65,45.65,0,0,0,573.35,374a46.84,46.84,0,0,0-14,34.12q0,20.38,13.88,34.6A46.84,46.84,0,0,0,627,452.35,50.76,50.76,0,0,0,643.8,438.7v15.88h11.71V332.63H643.8Zm-3.94,48.58a34.38,34.38,0,0,1-13.44,13.3A37.18,37.18,0,0,1,607.93,446a35.06,35.06,0,0,1-18.1-5,36.4,36.4,0,0,1-13.44-13.86,37.44,37.44,0,0,1,0-37.31A35.89,35.89,0,0,1,608,371.3a35,35,0,0,1,26,10.78q10.56,10.76,10.56,26.79A38,38,0,0,1,639.86,427.77Z" transform="translate(-155.53 -332.46)"/><path class="cls-1" d="M454.75,334.29a9.32,9.32,0,0,0-6.85,2.89,9.77,9.77,0,0,0,0,13.84,9.76,9.76,0,1,0,6.85-16.72Z" transform="translate(-155.53 -332.46)"/><path class="cls-1" d="M392.26,391.35l-29.2-29.19H346.34v-29.7h-23v39a47.52,47.52,0,0,0-73,17,47.48,47.48,0,0,0-71.91-17.83v-9.46H155.53v120H178.4V446.34a47.48,47.48,0,0,0,71.91-17.82,47.52,47.52,0,0,0,73,17v9.15h22v.14h17.77l29.2-29.21,29.19,29.21h16.49V437l-28.56-28.56,28.56-28.56V362.16H421.45ZM206.75,434.24a24.94,24.94,0,1,1,24.94-24.93A24.94,24.94,0,0,1,206.75,434.24Zm87.27,0a24.94,24.94,0,1,1,24.93-24.93A24.93,24.93,0,0,1,294,434.24Zm52.32,3V379.68l28.79,28.8Z" transform="translate(-155.53 -332.46)"/><rect class="cls-1" x="293.31" y="29.76" width="11.88" height="92.36"/><rect class="cls-1" x="901.1" y="0.17" width="11.88" height="121.95"/><path class="cls-1" d="M943.28,337.18a9.76,9.76,0,1,0,2.88,7A9.52,9.52,0,0,0,943.28,337.18Z" transform="translate(-155.53 -332.46)"/><path class="cls-1" d="M1034.61,379.2a46.73,46.73,0,0,0-16.17-14.52,43.53,43.53,0,0,0-20.58-4.84A45.68,45.68,0,0,0,964.16,374a46.81,46.81,0,0,0-14,34.12q0,20.38,13.88,34.6a46.86,46.86,0,0,0,53.82,9.61,50.63,50.63,0,0,0,16.76-13.65v15.88h11.72V362.22h-11.72Zm-3.93,48.58a34.46,34.46,0,0,1-13.44,13.3A37.17,37.17,0,0,1,998.75,446a35.07,35.07,0,0,1-18.1-5,36.44,36.44,0,0,1-13.44-13.86,37.47,37.47,0,0,1,0-37.31,35.9,35.9,0,0,1,31.67-18.56,35,35,0,0,1,26,10.78q10.55,10.76,10.55,26.79A38.2,38.2,0,0,1,1030.68,427.77Z" transform="translate(-155.53 -332.46)"/><rect class="cls-1" x="774.93" y="29.76" width="11.88" height="92.36"/><path class="cls-1" d="M894,363.79A50.51,50.51,0,0,0,879,375.7V362.22H865.76v92.36H879V423.33q0-24,2.88-31.92,3.77-10.26,11-15.15a26.28,26.28,0,0,1,14.94-4.88A27,27,0,0,1,916,373l8.07-10a34.76,34.76,0,0,0-13.72-3.15A36,36,0,0,0,894,363.79Z" transform="translate(-155.53 -332.46)"/><path class="cls-1" d="M733.64,405.34c0,11.54-.59,19.11-1.78,22.66a24.61,24.61,0,0,1-9.57,12.62q-6.93,4.78-16.87,4.78a29.56,29.56,0,0,1-17.14-4.92,24.24,24.24,0,0,1-9.73-13.41c-1.14-4-1.7-11.2-1.7-21.73V362.22H665v44.47q0,19.7,4.46,29.5a33.67,33.67,0,0,0,13.49,15.28q9,5.48,22.54,5.47t22.44-5.47a34,34,0,0,0,13.41-15.14q4.45-9.7,4.46-28.78V362.22H733.64Z" transform="translate(-155.53 -332.46)"/><path class="cls-1" d="M781.76,402q-10.88-5.59-14.28-9.77a13.14,13.14,0,0,1-3.4-8.56,11.79,11.79,0,0,1,4.12-8.92,14.09,14.09,0,0,1,9.91-3.82q9.11,0,18.64,9.26l7.63-7.9q-12.93-12.45-25.67-12.47-11,0-18.15,7a23.3,23.3,0,0,0-7.19,17.48,24.06,24.06,0,0,0,4.51,14.37q4.5,6.26,17,12.72,11.64,5.94,15,9.85a13.79,13.79,0,0,1,3.33,9.08,14.19,14.19,0,0,1-5,10.78A17.4,17.4,0,0,1,776,445.66q-10.21,0-19.31-10.27l-7.47,8.48a33,33,0,0,0,12,9.59,34.73,34.73,0,0,0,15.26,3.48q12,0,20-7.88a26.08,26.08,0,0,0,8-19.27,24.16,24.16,0,0,0-4.68-14.51Q795,408.91,781.76,402Z" transform="translate(-155.53 -332.46)"/><polygon class="cls-1" points="683.02 1.52 671.15 1.52 671.15 29.76 654.93 29.76 654.93 40.03 671.15 40.03 671.15 122.12 683.02 122.12 683.02 40.03 701.87 40.03 701.87 29.76 683.02 29.76 683.02 1.52"/></svg>