<svg id="Layer_1" data-name="Layer 1" xmlns="http://www.w3.org/2000/svg" viewBox="0 0 728.55 82.94"><defs><style>.cls-1{fill:#020202;}</style></defs><title>PDXweb_DesignExperience</title><path class="cls-1" d="M496.17,66.53V67a20,20,0,0,1-19.8-20v-.78a20,20,0,0,1,20-20h38.89V38.43a11.06,11.06,0,0,0-17,4,11,11,0,0,0-16.74-4.15v-2.2h-5.35Zm0,.5Zm44.4-26.58v13.4l6.7-6.7Zm-18,6.89a5.8,5.8,0,1,0,5.8-5.81,5.8,5.8,0,0,0-5.8,5.81Zm169.84-8.85A8.35,8.35,0,0,0,685,42.81a8.73,8.73,0,0,0,0,8.68,8.5,8.5,0,0,0,3.13,3.23,8.17,8.17,0,0,0,4.21,1.15,8.65,8.65,0,0,0,4.3-1.15,8,8,0,0,0,3.13-3.1,8.89,8.89,0,0,0,1.09-4.4A8.55,8.55,0,0,0,698.44,41a8.14,8.14,0,0,0-6-2.49Zm36.17,7.8v.78a20,20,0,0,1-20,20H501.49V56a11,11,0,0,0,16.74-4.15,11.06,11.06,0,0,0,17,4v2.13h9.27l6.79-6.8,6.79,6.8h3.84V53.8l-6.65-6.65,6.65-6.65V36.37h-3.84l-6.82,6.84-6.79-6.79h-3.9v-10H609.8v14A10.87,10.87,0,0,0,606,37a10.15,10.15,0,0,0-4.79-1.13,10.62,10.62,0,0,0-7.84,3.3,10.9,10.9,0,0,0-3.26,7.94,11.11,11.11,0,0,0,3.23,8,10.9,10.9,0,0,0,12.52,2.24,11.82,11.82,0,0,0,3.9-3.18v3.69h2.73V26.34h39.84v10H648.6v2.39h3.77v19.1h2.76V38.73h4.38V36.34h-4.38V26.4h0v-.11h50.75V57.83h2.76V26.34a20,20,0,0,1,20,19.95Zm-161.4-9.91h-2.77V57.87h2.77Zm.89-4.21a2.2,2.2,0,0,0-.67-1.62,2.25,2.25,0,0,0-3.18,0l0,0a2.27,2.27,0,0,0,0,3.21h0a2.27,2.27,0,0,0,3.88-1.6Zm20.4,14.64a17.47,17.47,0,0,0-.89-6.46,7.31,7.31,0,0,0-2.76-3.3,7.63,7.63,0,0,0-4.28-1.22,9.07,9.07,0,0,0-4.39,1.09,11.59,11.59,0,0,0-3.67,3.31V36.38h-2.77V57.87h2.77V50a28.5,28.5,0,0,1,.4-5.85A7.77,7.77,0,0,1,575.5,40a6.82,6.82,0,0,1,4.5-1.66,5.57,5.57,0,0,1,3.56,1.07,5.44,5.44,0,0,1,1.84,3.21,25.2,25.2,0,0,1,.31,5V57.9h2.76Zm45-10.43H630.7v10a20.69,20.69,0,0,1-.42,5.27,5.73,5.73,0,0,1-2.23,2.94,6.74,6.74,0,0,1-3.93,1.11,6.87,6.87,0,0,1-4-1.15,5.64,5.64,0,0,1-2.26-3.12,21.35,21.35,0,0,1-.4-5.06v-10h-2.77V46.72a17.36,17.36,0,0,0,1,6.87,7.84,7.84,0,0,0,3.14,3.56,10,10,0,0,0,5.25,1.27,9.85,9.85,0,0,0,5.22-1.27,7.9,7.9,0,0,0,3.12-3.52,16.7,16.7,0,0,0,1-6.7ZM647.18,52.1a5.62,5.62,0,0,0-1.09-3.38,12.41,12.41,0,0,0-4.2-3.08,11,11,0,0,1-3.32-2.27,3.06,3.06,0,0,1-.79-2,2.75,2.75,0,0,1,1-2.08,3.28,3.28,0,0,1,2.31-.89,6.39,6.39,0,0,1,4.34,2.15l1.78-1.84q-3-2.9-6-2.9A5.82,5.82,0,0,0,637,37.43a5.42,5.42,0,0,0-1.67,4.07,5.6,5.6,0,0,0,1,3.34,11.22,11.22,0,0,0,4,3,12.32,12.32,0,0,1,3.48,2.29,3.2,3.2,0,0,1,.77,2.11,3.3,3.3,0,0,1-1.17,2.51,4,4,0,0,1-2.83,1.07,6,6,0,0,1-4.49-2.39l-1.74,2a7.67,7.67,0,0,0,2.8,2.23,8.08,8.08,0,0,0,3.55.81,6.34,6.34,0,0,0,4.65-1.83,6.07,6.07,0,0,0,1.86-4.53ZM675,36.56a8.09,8.09,0,0,0-3.19-.73,8.38,8.38,0,0,0-3.81.92,11.76,11.76,0,0,0-3.48,2.77V36.38h-3.09V57.87h3.09V50.6q0-5.59.67-7.43a7,7,0,0,1,2.55-3.53,6.12,6.12,0,0,1,3.48-1.14,6.27,6.27,0,0,1,1.91.38Zm4.25-.18H676.5V57.87h2.76Zm.89-4.21a2.22,2.22,0,0,0-.67-1.62,2.25,2.25,0,0,0-3.2,0,2.27,2.27,0,0,0,0,3.21h0a2.18,2.18,0,0,0,1.59.67,2.29,2.29,0,0,0,2.3-2.23Zm23.31,4.21h-2.73v4A10.88,10.88,0,0,0,697,37a10.14,10.14,0,0,0-4.79-1.13,10.63,10.63,0,0,0-7.84,3.3,10.89,10.89,0,0,0-3.26,7.94,11.1,11.1,0,0,0,3.23,8,10.91,10.91,0,0,0,12.53,2.24,11.78,11.78,0,0,0,3.9-3.18v3.69h2.73Zm-201.2,11a5.8,5.8,0,1,0,5.8-5.81,5.8,5.8,0,0,0-5.8,5.81Zm99.19-8.85a8.35,8.35,0,0,0-7.37,4.32,8.71,8.71,0,0,0,0,8.68,8.47,8.47,0,0,0,3.13,3.23,8.16,8.16,0,0,0,4.21,1.15,8.65,8.65,0,0,0,4.3-1.15,8,8,0,0,0,3.13-3.1,8.85,8.85,0,0,0,1.1-4.4A8.55,8.55,0,0,0,607.49,41a8.14,8.14,0,0,0-6-2.53Zm-539.84,9q.19-.2.86-.76a12.1,12.1,0,0,0,1.15-1.07,2.78,2.78,0,0,0,.49-.74,1.82,1.82,0,0,0,.15-.72,1.59,1.59,0,0,0-.51-1.2,1.92,1.92,0,0,0-1.38-.48A2,2,0,0,0,61,43a1.88,1.88,0,0,0-.59,1.31l.77.08a1.22,1.22,0,0,1,.33-.89,1.16,1.16,0,0,1,.86-.32,1.14,1.14,0,0,1,.83.3,1,1,0,0,1,.32.75,1.54,1.54,0,0,1-.35.9,8.28,8.28,0,0,1-1.34,1.29,7.62,7.62,0,0,0-1,.92,2.73,2.73,0,0,0-.49.81,1.32,1.32,0,0,0-.09.52h4V48H61.37a2.48,2.48,0,0,1,.27-.49Zm7.28-3.31A6,6,0,0,1,69,45.65a5.55,5.55,0,0,1-.22,1.72,2.15,2.15,0,0,1-.66,1,1.85,1.85,0,0,1-2.48-.27,4,4,0,0,1-.6-2.47,5.54,5.54,0,0,1,.22-1.73,2.15,2.15,0,0,1,.66-1,1.68,1.68,0,0,1,1.1-.36,1.8,1.8,0,0,1,.86.2,1.64,1.64,0,0,1,.61.57,3.06,3.06,0,0,1,.4.85Zm-.63,1.43a3.8,3.8,0,0,0-.35-2,1,1,0,0,0-1.69-.06,3.85,3.85,0,0,0-.38,2,3.81,3.81,0,0,0,.35,2,1,1,0,0,0,1.73,0,3.81,3.81,0,0,0,.37-2Zm5.34-1.43a6,6,0,0,1,.14,1.43,5.55,5.55,0,0,1-.22,1.72,2.15,2.15,0,0,1-.66,1,1.85,1.85,0,0,1-2.48-.27,4,4,0,0,1-.6-2.47A5.54,5.54,0,0,1,70,43.9a2.15,2.15,0,0,1,.66-1,1.68,1.68,0,0,1,1.1-.36,1.8,1.8,0,0,1,.86.2,1.64,1.64,0,0,1,.61.57,3.06,3.06,0,0,1,.4.85ZM73,45.65a3.8,3.8,0,0,0-.35-2,1,1,0,0,0-1.69-.06,3.85,3.85,0,0,0-.38,2,3.81,3.81,0,0,0,.35,2,1,1,0,0,0,1.73,0,3.81,3.81,0,0,0,.37-2Zm2.12,2.47a4,4,0,0,1-.6-2.47,5.54,5.54,0,0,1,.22-1.73,2.15,2.15,0,0,1,.66-1,1.68,1.68,0,0,1,1.1-.36,1.8,1.8,0,0,1,.86.2,1.64,1.64,0,0,1,.61.57,3.06,3.06,0,0,1,.38.9,6,6,0,0,1,.14,1.43,5.55,5.55,0,0,1-.22,1.72,2.15,2.15,0,0,1-.66,1,1.85,1.85,0,0,1-2.48-.27Zm.17-2.47a3.81,3.81,0,0,0,.35,2,1,1,0,0,0,1.73,0,5.83,5.83,0,0,0,0-4,1,1,0,0,0-1.69-.06,3.85,3.85,0,0,0-.36,2ZM6.37,78a2.62,2.62,0,0,1-.43,1.75,1.9,1.9,0,0,1-1.43.46,2,2,0,0,1-1-.23,1.27,1.27,0,0,1-.57-.65A3.88,3.88,0,0,1,2.77,78V74H1.86v4a4.6,4.6,0,0,0,.26,1.73,1.9,1.9,0,0,0,.88,1A3.3,3.3,0,0,0,4.58,81a3,3,0,0,0,1.61-.38,2,2,0,0,0,.85-1A4.71,4.71,0,0,0,7.27,78V74h-.9Zm2.56,2.91h1v-1h-1Zm8.81-4.42a2.56,2.56,0,0,1,.65,1.86,3.3,3.3,0,0,1-.29,1.51,2,2,0,0,1-.84.86,2.45,2.45,0,0,1-1.2.31,2.24,2.24,0,0,1-1.69-.68,2.68,2.68,0,0,1-.65-1.93,2.57,2.57,0,0,1,.77-2,2.32,2.32,0,0,1,1.57-.55,2.24,2.24,0,0,1,1.71.67Zm-.22,1.9a2.06,2.06,0,0,0-.42-1.4,1.39,1.39,0,0,0-2-.14l-.14.14a2.67,2.67,0,0,0,0,2.87A1.39,1.39,0,0,0,17,80l.14-.14a2.17,2.17,0,0,0,.46-1.47Zm2.58-4.27a1.08,1.08,0,0,0-.43.53,2.32,2.32,0,0,0-.09.75v.53h-.71v.66h.75v4.33h.84V76.55h1v-.66h-1v-.46a.89.89,0,0,1,.16-.61.74.74,0,0,1,.54-.16,2.84,2.84,0,0,1,.5,0l.13-.74a4.11,4.11,0,0,0-.79-.08,1.55,1.55,0,0,0-.86.24ZM29,79.77a2,2,0,0,1-1.3.44,2.23,2.23,0,0,1-1.17-.32,1.91,1.91,0,0,1-.8-1,4.2,4.2,0,0,1-.26-1.53A4.11,4.11,0,0,1,25.71,76a2,2,0,0,1,.75-1,2.23,2.23,0,0,1,1.33-.38,1.85,1.85,0,0,1,1.15.34,2.13,2.13,0,0,1,.69,1.09l.9-.21a2.73,2.73,0,0,0-1-1.48,2.82,2.82,0,0,0-1.74-.53,3.41,3.41,0,0,0-1.67.42A2.81,2.81,0,0,0,25,75.51a4,4,0,0,0-.41,1.88A4.68,4.68,0,0,0,25,79.21,2.83,2.83,0,0,0,26,80.52a3.27,3.27,0,0,0,1.81.45,2.84,2.84,0,0,0,1.82-.59,3.07,3.07,0,0,0,1-1.71l-.91-.23a2.26,2.26,0,0,1-.69,1.33ZM31.67,75h.85V74h-.85Zm0,5.91h.85v-5h-.85Zm5.87-4.51a1.3,1.3,0,0,0-.57-.42,2.08,2.08,0,0,0-.83-.16,1.79,1.79,0,0,0-1.59.82v-.71h-.76v5h.84V78.17a1.69,1.69,0,0,1,.39-1.3,1.37,1.37,0,0,1,.93-.34,1.11,1.11,0,0,1,.59.15.81.81,0,0,1,.35.41,2.27,2.27,0,0,1,.1.77v3h.85v-3a4.83,4.83,0,0,0,0-.82,1.63,1.63,0,0,0-.26-.63ZM42,80a1.18,1.18,0,0,1-.83.31,1.25,1.25,0,0,1-1-.46,2.24,2.24,0,0,1-.38-1.46,2.17,2.17,0,0,1,.4-1.45,1.31,1.31,0,0,1,1-.46,1.08,1.08,0,0,1,.72.25,1.36,1.36,0,0,1,.42.76l.82-.13a1.88,1.88,0,0,0-.66-1.17,2.07,2.07,0,0,0-1.33-.41,2.42,2.42,0,0,0-1.19.3,1.87,1.87,0,0,0-.81.91,3.47,3.47,0,0,0-.27,1.41,2.72,2.72,0,0,0,.62,1.92,2.14,2.14,0,0,0,1.65.67,2,2,0,0,0,1.38-.49,2.16,2.16,0,0,0,.7-1.35L42.39,79A1.52,1.52,0,0,1,42,80Zm2-5h.85V74H44Zm0,5.91h.85v-5H44Zm5.87-4.51a1.3,1.3,0,0,0-.57-.42,2.08,2.08,0,0,0-.83-.16,1.79,1.79,0,0,0-1.59.82v-.71H46.1v5h.84V78.19a1.69,1.69,0,0,1,.39-1.3,1.37,1.37,0,0,1,.93-.34,1.11,1.11,0,0,1,.59.15.81.81,0,0,1,.35.41,2.27,2.27,0,0,1,.1.77v3h.85V77.81a4.83,4.83,0,0,0,0-.82,1.63,1.63,0,0,0-.28-.63Zm5.35,0a1.3,1.3,0,0,0-.57-.42,2.08,2.08,0,0,0-.83-.16,1.79,1.79,0,0,0-1.59.82v-.71h-.74v5h.84V78.19a1.69,1.69,0,0,1,.39-1.3,1.37,1.37,0,0,1,.93-.34,1.11,1.11,0,0,1,.59.15.81.81,0,0,1,.35.41,2.27,2.27,0,0,1,.1.77v3h.85V77.81a4.83,4.83,0,0,0,0-.82,1.63,1.63,0,0,0-.3-.63Zm5.7,3.91a1.88,1.88,0,0,0,.21.6h-.88a1.79,1.79,0,0,1-.17-.61,3.15,3.15,0,0,1-.9.56,2.6,2.6,0,0,1-.93.16A1.81,1.81,0,0,1,57,80.6a1.33,1.33,0,0,1-.44-1,1.36,1.36,0,0,1,.17-.67,1.38,1.38,0,0,1,.44-.49,2,2,0,0,1,.61-.28A6.05,6.05,0,0,1,58.5,78,7.69,7.69,0,0,0,60,77.74v-.22a.93.93,0,0,0-.24-.73,1.41,1.41,0,0,0-1-.29,1.49,1.49,0,0,0-.88.21,1.28,1.28,0,0,0-.42.74l-.83-.11a2,2,0,0,1,.37-.86,1.62,1.62,0,0,1,.75-.5,3.33,3.33,0,0,1,1.13-.18,3,3,0,0,1,1,.15,1.37,1.37,0,0,1,.59.38,1.33,1.33,0,0,1,.26.58,4.73,4.73,0,0,1,0,.78v1.13a12,12,0,0,0,.17,1.45ZM60,78.39a6.22,6.22,0,0,1-1.38.32,3.18,3.18,0,0,0-.74.17.73.73,0,0,0-.33.27.75.75,0,0,0,.14,1,1.1,1.1,0,0,0,.75.23,1.75,1.75,0,0,0,.87-.21,1.32,1.32,0,0,0,.56-.58,2,2,0,0,0,.14-.85Zm3.64,1.78a.56.56,0,0,1-.29-.06.35.35,0,0,1-.15-.16,1.47,1.47,0,0,1,0-.46V76.57H64v-.66h-.85V74.17l-.84.51v1.23h-.62v.66h.64v2.87a3,3,0,0,0,.1,1,.81.81,0,0,0,.36.38,1.45,1.45,0,0,0,.71.15,3.15,3.15,0,0,0,.64-.08l-.12-.75ZM64.83,75h.85V74h-.85Zm0,5.91h.85v-5h-.85ZM3.77,8.74H.67V.15h3A7.18,7.18,0,0,1,5.2.27,2.91,2.91,0,0,1,6.46.89a3.49,3.49,0,0,1,1,1.47,5.76,5.76,0,0,1,.34,2,6,6,0,0,1-.23,1.73A4.21,4.21,0,0,1,7,7.34a3.11,3.11,0,0,1-.78.78,3.19,3.19,0,0,1-1,.43A5.85,5.85,0,0,1,3.77,8.74Zm-.13-1A4.45,4.45,0,0,0,5,7.58a1.91,1.91,0,0,0,.77-.45A2.71,2.71,0,0,0,6.37,6,5.31,5.31,0,0,0,6.6,4.38a4,4,0,0,0-.44-2.07,2.23,2.23,0,0,0-1.08-1,4.44,4.44,0,0,0-1.47-.18H1.81V7.69Zm12.13,0H10.5V4.82h4.75v-1H10.5V1.21h5.07v-1H9.37V8.8h6.4Zm5.94,0a3.16,3.16,0,0,1-1.15.19,3.27,3.27,0,0,1-1.32-.25A1.94,1.94,0,0,1,18.38,7,2.37,2.37,0,0,1,18,5.9L17,6a2.9,2.9,0,0,0,.47,1.54,2.74,2.74,0,0,0,1.24,1,4.94,4.94,0,0,0,2,.34,3.93,3.93,0,0,0,1.66-.34,2.58,2.58,0,0,0,1.13-.94,2.34,2.34,0,0,0,.39-1.29,2.13,2.13,0,0,0-.36-1.22,2.6,2.6,0,0,0-1.12-.87,11.34,11.34,0,0,0-1.9-.55,4.53,4.53,0,0,1-1.71-.61,1,1,0,0,1-.33-.76,1.13,1.13,0,0,1,.47-.91A2.4,2.4,0,0,1,20.4,1a2.31,2.31,0,0,1,1.5.42,1.76,1.76,0,0,1,.59,1.23l1.09-.08a2.6,2.6,0,0,0-.42-1.35A2.43,2.43,0,0,0,22,.31,4.31,4.31,0,0,0,20.36,0a4.09,4.09,0,0,0-1.58.29,2.29,2.29,0,0,0-1.08.86,2.18,2.18,0,0,0-.37,1.22,2,2,0,0,0,.3,1.07,2.33,2.33,0,0,0,.92.8,7.81,7.81,0,0,0,1.66.54,15.12,15.12,0,0,1,1.53.42,1.74,1.74,0,0,1,.77.51,1.12,1.12,0,0,1,.23.71,1.23,1.23,0,0,1-.24.74,1.59,1.59,0,0,1-.79.51Zm5-7.52H25.54V8.76h1.14Zm3.81,8.19a4.88,4.88,0,0,0,2.3.54,5.13,5.13,0,0,0,1.83-.34,6.43,6.43,0,0,0,1.73-1V4.37H32.7v1h2.53V7a3.72,3.72,0,0,1-1.07.61,3.81,3.81,0,0,1-1.44.28,3.56,3.56,0,0,1-1.61-.37A2.53,2.53,0,0,1,30,6.34a4.19,4.19,0,0,1-.4-1.92,4.5,4.5,0,0,1,.33-1.73,3,3,0,0,1,.54-.85,2.52,2.52,0,0,1,.94-.63A3.49,3.49,0,0,1,32.72,1a3,3,0,0,1,1.18.23,2,2,0,0,1,.82.6,3.17,3.17,0,0,1,.48,1l1-.28a3.73,3.73,0,0,0-.65-1.41A2.79,2.79,0,0,0,34.37.27,4.49,4.49,0,0,0,32.69,0,4.73,4.73,0,0,0,30.42.5a3.49,3.49,0,0,0-1.51,1.61,5.32,5.32,0,0,0-.52,2.34,4.94,4.94,0,0,0,.53,2.29,3.58,3.58,0,0,0,1.56,1.6ZM39.13,2l4.51,6.75h1.13V.17H43.68V6.91L39.17.17H38V8.76h1.09ZM56.49,7.75H51.17V4.83h4.75v-1H51.17V1.21h5.07v-1H50V8.8h6.41Zm2.06,1,2.16-3,.41-.64.38.57,2.16,3.06h1.41l-3.3-4.53,3-4H63.55L61.82,2.49a11.22,11.22,0,0,0-.68,1,12.53,12.53,0,0,0-.69-1L58.89.24H57.54l2.93,4.11L57.15,8.83Zm8.65,0H66V.16h3.24a7.82,7.82,0,0,1,1.31.08,2.59,2.59,0,0,1,1.06.4,2.11,2.11,0,0,1,.69.83,2.8,2.8,0,0,1-.44,3,3.34,3.34,0,0,1-2.51.74h-2.2Zm0-4.51h2.17a2.36,2.36,0,0,0,1.56-.41,1.46,1.46,0,0,0,.46-1.15,1.55,1.55,0,0,0-.27-.92,1.27,1.27,0,0,0-.75-.55,4.86,4.86,0,0,0-1,0h-2.2ZM80.5,7.73H75.19V4.81h4.75v-1H75.19V1.21h5.07v-1H74.05V8.8h6.41Zm2.72,1H82.08V.14h3.81a5.07,5.07,0,0,1,1.75.23,1.91,1.91,0,0,1,1,.82A2.44,2.44,0,0,1,89,2.48,2.16,2.16,0,0,1,88.41,4a3,3,0,0,1-1.83.8,3,3,0,0,1,.69.43,5.91,5.91,0,0,1,.94,1.14L89.7,8.73H88.27L87.13,6.94q-.5-.77-.82-1.18a2.58,2.58,0,0,0-.58-.57A1.71,1.71,0,0,0,85.21,5a3.41,3.41,0,0,0-.63,0H83.26Zm0-4.8h2.44a3.66,3.66,0,0,0,1.22-.16,1.3,1.3,0,0,0,.67-.52,1.39,1.39,0,0,0,.23-.77,1.28,1.28,0,0,0-.44-1,2.07,2.07,0,0,0-1.4-.39H83.22ZM92.06.14H90.92V8.73h1.14Zm8.44,7.58H95.23V4.8H100v-1H95.23V1.21h5.07v-1H94.09V8.8h6.41ZM103.15,2l4.51,6.75h1.17V.14h-1.09V6.88L103.23.14h-1.17V8.73h1.09Zm9,6.33a4.08,4.08,0,0,0,2.26.57,3.54,3.54,0,0,0,2.27-.74A3.83,3.83,0,0,0,118,6l-1.14-.29a2.82,2.82,0,0,1-.9,1.63,2.44,2.44,0,0,1-1.62.55,2.79,2.79,0,0,1-1.46-.4,2.38,2.38,0,0,1-1-1.22,5.24,5.24,0,0,1-.32-1.91,5.13,5.13,0,0,1,.27-1.65,2.51,2.51,0,0,1,.93-1.27A2.78,2.78,0,0,1,114.39,1a2.31,2.31,0,0,1,1.43.43,2.65,2.65,0,0,1,.87,1.37l1.12-.26A3.41,3.41,0,0,0,116.59.66,3.52,3.52,0,0,0,114.42,0a4.26,4.26,0,0,0-2.08.52A3.51,3.51,0,0,0,110.88,2a5.06,5.06,0,0,0-.51,2.34,5.84,5.84,0,0,0,.45,2.3,3.53,3.53,0,0,0,1.33,1.64Zm13.65-.59h-5.27V4.8h4.75v-1h-4.75V1.21h5.07v-1h-6.23V8.8h6.41Zm2.93-.19h-1.2v1.2h1.2Zm0-5h-1.2v1.2h1.2Zm14.83,74.68a9.11,9.11,0,0,0-1.52-.44,3.63,3.63,0,0,1-1.37-.49.78.78,0,0,1-.27-.61.91.91,0,0,1,.38-.73,1.92,1.92,0,0,1,1.2-.3,1.85,1.85,0,0,1,1.2.33,1.41,1.41,0,0,1,.48,1l.87-.07a2.09,2.09,0,0,0-.34-1.08,2,2,0,0,0-.9-.73,3.46,3.46,0,0,0-1.35-.25,3.28,3.28,0,0,0-1.26.23,1.83,1.83,0,0,0-.86.69,1.75,1.75,0,0,0-.3,1,1.57,1.57,0,0,0,.24.86,1.86,1.86,0,0,0,.73.64,6.29,6.29,0,0,0,1.33.43A12,12,0,0,1,143,78a1.39,1.39,0,0,1,.62.41.89.89,0,0,1,.19.57,1,1,0,0,1-.19.59,1.27,1.27,0,0,1-.59.42,2.53,2.53,0,0,1-.92.16,2.62,2.62,0,0,1-1.06-.2,1.55,1.55,0,0,1-.69-.54,1.9,1.9,0,0,1-.28-.85l-.86.08a2.32,2.32,0,0,0,.38,1.24,2.2,2.2,0,0,0,1,.82,4,4,0,0,0,1.57.27,3.15,3.15,0,0,0,1.33-.27,2.08,2.08,0,0,0,.9-.76,1.87,1.87,0,0,0,.31-1,1.71,1.71,0,0,0-.29-1A2.08,2.08,0,0,0,143.56,77.21Zm6.4,3a1.88,1.88,0,0,0,.21.6h-.88a1.79,1.79,0,0,1-.17-.61,3.15,3.15,0,0,1-.9.56,2.6,2.6,0,0,1-.93.16,1.81,1.81,0,0,1-1.26-.4,1.33,1.33,0,0,1-.44-1,1.36,1.36,0,0,1,.17-.67,1.38,1.38,0,0,1,.44-.49,2,2,0,0,1,.61-.28,6.05,6.05,0,0,1,.75-.13,7.69,7.69,0,0,0,1.51-.29v-.22a.93.93,0,0,0-.24-.73,1.41,1.41,0,0,0-1-.29,1.49,1.49,0,0,0-.88.21,1.28,1.28,0,0,0-.42.74l-.83-.11a2,2,0,0,1,.37-.86,1.62,1.62,0,0,1,.75-.5,3.33,3.33,0,0,1,1.13-.18,3,3,0,0,1,1,.15,1.37,1.37,0,0,1,.59.38,1.33,1.33,0,0,1,.26.58,4.73,4.73,0,0,1,0,.78v1.13a12,12,0,0,0,.16,1.53Zm-.91-1.9a6.22,6.22,0,0,1-1.38.32,3.18,3.18,0,0,0-.74.17.73.73,0,0,0-.33.27.75.75,0,0,0,.14,1,1.1,1.1,0,0,0,.75.23,1.75,1.75,0,0,0,.87-.21,1.32,1.32,0,0,0,.56-.58,2,2,0,0,0,.14-.85Zm5.91-2a1.3,1.3,0,0,0-.57-.42,2.08,2.08,0,0,0-.83-.16,1.79,1.79,0,0,0-1.59.82v-.71h-.76v5H152V78.12a1.69,1.69,0,0,1,.39-1.3,1.37,1.37,0,0,1,.93-.34,1.11,1.11,0,0,1,.59.15.81.81,0,0,1,.35.41,2.27,2.27,0,0,1,.1.77v3h.85v-3a4.83,4.83,0,0,0,0-.82,1.63,1.63,0,0,0-.3-.63Zm4.43,4.51h.91V77.69h3.23v-.81H160.3V74.75H164v-.81h-4.66Zm7-4.93a2.06,2.06,0,0,0-.54.7v-.76h-.76v5h.84V78.22a3.28,3.28,0,0,1,.14-1,.9.9,0,0,1,.31-.46.8.8,0,0,1,.5-.17,1.21,1.21,0,0,1,.62.18l.29-.78a1.65,1.65,0,0,0-.87-.27.94.94,0,0,0-.55.22Zm6,4.33a1.88,1.88,0,0,0,.21.6h-.88a1.79,1.79,0,0,1-.17-.61,3.15,3.15,0,0,1-.9.56,2.6,2.6,0,0,1-.93.16,1.81,1.81,0,0,1-1.26-.4,1.33,1.33,0,0,1-.44-1,1.36,1.36,0,0,1,.17-.67,1.38,1.38,0,0,1,.44-.49,2,2,0,0,1,.61-.28A6.05,6.05,0,0,1,170,78a7.69,7.69,0,0,0,1.51-.29v-.22a.93.93,0,0,0-.24-.73,1.41,1.41,0,0,0-1-.29,1.49,1.49,0,0,0-.88.21,1.28,1.28,0,0,0-.42.74l-.83-.11a2,2,0,0,1,.37-.86,1.62,1.62,0,0,1,.75-.5,3.33,3.33,0,0,1,1.13-.18,3,3,0,0,1,1,.15,1.37,1.37,0,0,1,.59.38,1.33,1.33,0,0,1,.26.58,4.73,4.73,0,0,1,0,.78v1.13a12,12,0,0,0,.14,1.52Zm-.91-1.9a6.22,6.22,0,0,1-1.38.32,3.18,3.18,0,0,0-.74.17.73.73,0,0,0-.33.27.75.75,0,0,0,.14,1,1.1,1.1,0,0,0,.75.23,1.75,1.75,0,0,0,.87-.21,1.32,1.32,0,0,0,.56-.58,2,2,0,0,0,.14-.85Zm5.91-2a1.3,1.3,0,0,0-.57-.42,2.08,2.08,0,0,0-.83-.16,1.79,1.79,0,0,0-1.59.82v-.71h-.76v5h.84V78.13a1.69,1.69,0,0,1,.39-1.3,1.37,1.37,0,0,1,.93-.34,1.11,1.11,0,0,1,.59.15.81.81,0,0,1,.35.41,2.27,2.27,0,0,1,.1.77v3h.85v-3a4.83,4.83,0,0,0,0-.82,1.63,1.63,0,0,0-.32-.63Zm4.44,3.62a1.18,1.18,0,0,1-.83.31,1.25,1.25,0,0,1-1-.46,2.24,2.24,0,0,1-.38-1.46,2.17,2.17,0,0,1,.4-1.45,1.31,1.31,0,0,1,1-.46,1.08,1.08,0,0,1,.72.25,1.36,1.36,0,0,1,.42.76l.82-.13a1.88,1.88,0,0,0-.61-1.09A2.07,2.07,0,0,0,181,75.8a2.42,2.42,0,0,0-1.19.3A1.87,1.87,0,0,0,179,77a3.47,3.47,0,0,0-.27,1.41,2.72,2.72,0,0,0,.62,1.92A2.14,2.14,0,0,0,181,81a2,2,0,0,0,1.38-.49,2.16,2.16,0,0,0,.7-1.35l-.83-.11a1.52,1.52,0,0,1-.46.93Zm2-5h.85v-1h-.85Zm0,5.91h.85v-5h-.85ZM189,78.22a10.45,10.45,0,0,0-1.25-.39l-.75-.22a.74.74,0,0,1-.32-.23.47.47,0,0,1-.1-.3.56.56,0,0,1,.25-.45,1.38,1.38,0,0,1,.83-.19,1.19,1.19,0,0,1,.76.22.9.9,0,0,1,.33.6l.83-.11a1.79,1.79,0,0,0-.29-.77,1.4,1.4,0,0,0-.65-.46,2.89,2.89,0,0,0-1-.17,2.55,2.55,0,0,0-.73.1,1.74,1.74,0,0,0-.54.25,1.36,1.36,0,0,0-.42.47,1.28,1.28,0,0,0-.15.62,1.23,1.23,0,0,0,.73,1.14,7.9,7.9,0,0,0,1.29.41,3.66,3.66,0,0,1,.86.29.51.51,0,0,1,.25.45.71.71,0,0,1-.28.56,1.32,1.32,0,0,1-.86.24,1.37,1.37,0,0,1-.9-.27,1.17,1.17,0,0,1-.39-.77l-.84.13a1.88,1.88,0,0,0,.65,1.2,2.34,2.34,0,0,0,1.48.4,2.6,2.6,0,0,0,1.05-.2,1.59,1.59,0,0,0,.71-.58,1.42,1.42,0,0,0,.25-.8,1.24,1.24,0,0,0-.2-.72,1.28,1.28,0,0,0-.62-.46ZM193.6,80a1.18,1.18,0,0,1-.83.31,1.25,1.25,0,0,1-1-.46,2.24,2.24,0,0,1-.38-1.46,2.17,2.17,0,0,1,.4-1.45,1.31,1.31,0,0,1,1-.46,1.08,1.08,0,0,1,.72.25,1.36,1.36,0,0,1,.42.76l.82-.13a1.88,1.88,0,0,0-.66-1.17,2.07,2.07,0,0,0-1.33-.41,2.42,2.42,0,0,0-1.19.3,1.87,1.87,0,0,0-.81.91,3.47,3.47,0,0,0-.27,1.41,2.72,2.72,0,0,0,.62,1.92,2.14,2.14,0,0,0,1.65.67,2,2,0,0,0,1.38-.49,2.16,2.16,0,0,0,.7-1.35L194,79a1.52,1.52,0,0,1-.43,1Zm5.68-3.54a2.56,2.56,0,0,1,.65,1.86,3.3,3.3,0,0,1-.29,1.51,2,2,0,0,1-.84.86,2.45,2.45,0,0,1-1.2.31,2.24,2.24,0,0,1-1.69-.67,2.68,2.68,0,0,1-.65-1.93,2.57,2.57,0,0,1,.77-2,2.32,2.32,0,0,1,1.57-.55,2.24,2.24,0,0,1,1.66.69Zm-.22,1.9a2.06,2.06,0,0,0-.42-1.4,1.39,1.39,0,0,0-2-.14l-.14.14a2.67,2.67,0,0,0,0,2.87,1.39,1.39,0,0,0,2,.14l.14-.14a2.17,2.17,0,0,0,.41-1.44Zm8.83,1.42a2,2,0,0,1-1.3.44,2.23,2.23,0,0,1-1.17-.32,1.91,1.91,0,0,1-.8-1,4.2,4.2,0,0,1-.26-1.53,4.11,4.11,0,0,1,.22-1.32,2,2,0,0,1,.75-1,2.23,2.23,0,0,1,1.33-.38,1.85,1.85,0,0,1,1.15.34,2.13,2.13,0,0,1,.69,1.09l.9-.21a2.73,2.73,0,0,0-1-1.48,2.82,2.82,0,0,0-1.74-.53,3.41,3.41,0,0,0-1.67.42,2.81,2.81,0,0,0-1.17,1.22,4.05,4.05,0,0,0-.41,1.88,4.68,4.68,0,0,0,.36,1.85,2.83,2.83,0,0,0,1.06,1.31,3.27,3.27,0,0,0,1.81.45,2.84,2.84,0,0,0,1.82-.59,3.07,3.07,0,0,0,1-1.71l-.91-.23a2.26,2.26,0,0,1-.67,1.33ZM213.51,74l2.82,6.88h-1l-.8-2.08h-2.88l-.76,2.08h-1L212.53,74ZM214.2,78l-.72-1.91q-.33-.87-.49-1.43a8.75,8.75,0,0,1-.37,1.31l-.76,2ZM286.82,74l2.82,6.88h-1l-.8-2.08H285l-.76,2.08h-1L285.84,74Zm.69,4.06-.72-1.91q-.33-.87-.49-1.43a8.75,8.75,0,0,1-.37,1.31l-.76,2ZM293.43,74h.84v6.88h-.78v-.63a1.55,1.55,0,0,1-1.39.74,2,2,0,0,1-1.1-.33,2.16,2.16,0,0,1-.77-.92,3.17,3.17,0,0,1-.27-1.35,3.54,3.54,0,0,1,.25-1.35,2,2,0,0,1,1.86-1.25,1.66,1.66,0,0,1,1.38.69Zm.07,4.46a2.35,2.35,0,0,0-.39-1.5,1.21,1.21,0,0,0-1-.48,1.17,1.17,0,0,0-.94.46,2.27,2.27,0,0,0-.38,1.45,2.17,2.17,0,0,0,.4,1.43,1.22,1.22,0,0,0,1,.47,1.2,1.2,0,0,0,.94-.45,2.09,2.09,0,0,0,.37-1.34Zm4.18.47q-.2.55-.31,1-.15-.52-.32-1l-1.07-3h-.89l1.9,5h.79l1.89-5h-.87Zm6.81,1.34a1.88,1.88,0,0,0,.21.6h-.88a1.79,1.79,0,0,1-.17-.61,3.15,3.15,0,0,1-.9.56,2.6,2.6,0,0,1-.93.16,1.81,1.81,0,0,1-1.26-.4,1.33,1.33,0,0,1-.44-1,1.36,1.36,0,0,1,.17-.67,1.38,1.38,0,0,1,.44-.49,2,2,0,0,1,.61-.28,6.05,6.05,0,0,1,.75-.13,7.69,7.69,0,0,0,1.51-.29v-.22a.93.93,0,0,0-.24-.73,1.41,1.41,0,0,0-1-.29,1.49,1.49,0,0,0-.88.21,1.28,1.28,0,0,0-.42.74l-.83-.11a2,2,0,0,1,.37-.86,1.62,1.62,0,0,1,.75-.5,3.33,3.33,0,0,1,1.13-.18,3,3,0,0,1,1,.15,1.37,1.37,0,0,1,.59.38,1.33,1.33,0,0,1,.26.58,4.73,4.73,0,0,1,0,.78v1.13a12,12,0,0,0,.16,1.51Zm-.91-1.9a6.22,6.22,0,0,1-1.38.32,3.18,3.18,0,0,0-.74.17.73.73,0,0,0-.33.27.75.75,0,0,0,.14,1,1.1,1.1,0,0,0,.75.23,1.75,1.75,0,0,0,.87-.21,1.32,1.32,0,0,0,.56-.58,2,2,0,0,0,.14-.85Zm5.91-2a1.3,1.3,0,0,0-.57-.42,2.08,2.08,0,0,0-.83-.16,1.79,1.79,0,0,0-1.59.82v-.71h-.76v5h.84V78.14a1.69,1.69,0,0,1,.39-1.3,1.37,1.37,0,0,1,.93-.34,1.11,1.11,0,0,1,.59.15.81.81,0,0,1,.35.41,2.27,2.27,0,0,1,.1.77v3h.85v-3a4.83,4.83,0,0,0,0-.82,1.63,1.63,0,0,0-.3-.63Zm4.44,3.62a1.18,1.18,0,0,1-.83.31,1.25,1.25,0,0,1-1-.46,2.24,2.24,0,0,1-.38-1.46,2.17,2.17,0,0,1,.4-1.45,1.31,1.31,0,0,1,1-.46,1.08,1.08,0,0,1,.72.25,1.36,1.36,0,0,1,.42.76l.82-.13a1.88,1.88,0,0,0-.66-1.17,2.07,2.07,0,0,0-1.33-.41,2.42,2.42,0,0,0-1.19.3,1.87,1.87,0,0,0-.81.91,3.47,3.47,0,0,0-.27,1.41,2.72,2.72,0,0,0,.62,1.92,2.14,2.14,0,0,0,1.65.67,2,2,0,0,0,1.38-.49,2.16,2.16,0,0,0,.7-1.35l-.83-.11a1.52,1.52,0,0,1-.42,1Zm5.66-3.53a2.71,2.71,0,0,1,.63,1.92v.23H316.5a1.91,1.91,0,0,0,.46,1.26,1.38,1.38,0,0,0,1,.44,1.29,1.29,0,0,0,.79-.24,1.62,1.62,0,0,0,.52-.78l.87.11a2.13,2.13,0,0,1-.77,1.19,2.59,2.59,0,0,1-3.16-.25,2.63,2.63,0,0,1-.64-1.89,2.75,2.75,0,0,1,.65-2,2.19,2.19,0,0,1,1.68-.69,2.13,2.13,0,0,1,1.68.74Zm-.26,1.45a1.69,1.69,0,0,0-.32-.94,1.3,1.3,0,0,0-1-.49,1.34,1.34,0,0,0-1,.39,1.54,1.54,0,0,0-.44,1Zm5.1-3.91h.84v6.88h-.78v-.63a1.55,1.55,0,0,1-1.39.74,2,2,0,0,1-1.1-.33,2.16,2.16,0,0,1-.77-.92,3.17,3.17,0,0,1-.27-1.35,3.54,3.54,0,0,1,.25-1.35,2,2,0,0,1,1.86-1.25,1.66,1.66,0,0,1,1.38.69Zm.07,4.46a2.35,2.35,0,0,0-.39-1.5,1.21,1.21,0,0,0-1-.48,1.17,1.17,0,0,0-.94.46,2.27,2.27,0,0,0-.38,1.45,2.17,2.17,0,0,0,.4,1.43,1.22,1.22,0,0,0,1,.47,1.2,1.2,0,0,0,.94-.45,2.09,2.09,0,0,0,.37-1.34Zm9.76.54,1.2,1.87h-1.15l-.91-1.43q-.4-.62-.66-1a2,2,0,0,0-.46-.46,1.35,1.35,0,0,0-.42-.18,2.72,2.72,0,0,0-.51,0h-1.06v3.06h-.92V74h3a4.06,4.06,0,0,1,1.4.19,1.53,1.53,0,0,1,.77.65,2,2,0,0,1,.29,1,1.73,1.73,0,0,1-.47,1.23,2.4,2.4,0,0,1-1.46.64,2.38,2.38,0,0,1,.55.34,4.74,4.74,0,0,1,.76,1Zm-1-2.1a1,1,0,0,0,.54-.41,1.12,1.12,0,0,0,.18-.62,1,1,0,0,0-.35-.8,1.66,1.66,0,0,0-1.12-.31h-2.18V77h2a2.94,2.94,0,0,0,.9-.1Zm8.53,3.46-.57.67a4.93,4.93,0,0,1-1.06-1,2.88,2.88,0,0,1-.91.7,2.46,2.46,0,0,1-1.07.23,2.11,2.11,0,0,1-1.68-.71,1.94,1.94,0,0,1-.5-1.3,1.8,1.8,0,0,1,.41-1.15,3.43,3.43,0,0,1,1.23-.9A4.15,4.15,0,0,1,337,76a1.53,1.53,0,0,1-.15-.64,1.43,1.43,0,0,1,.49-1.08,1.71,1.71,0,0,1,1.22-.46,1.59,1.59,0,0,1,1.15.43,1.39,1.39,0,0,1,.45,1q0,1-1.3,1.68l1.23,1.57a3.89,3.89,0,0,0,.33-1l.88.19a4.79,4.79,0,0,1-.61,1.48,4.89,4.89,0,0,0,1.06,1.2Zm-4-5a.79.79,0,0,0,.08.34,1.75,1.75,0,0,0,.25.37l.38.44a2.25,2.25,0,0,0,.71-.57,1,1,0,0,0,.16-.54.78.78,0,0,0-.22-.58.75.75,0,0,0-.56-.22.79.79,0,0,0-.57.22.72.72,0,0,0-.3.55Zm1.89,4.07-1.55-1.92a3,3,0,0,0-.92.76,1.23,1.23,0,0,0-.24.69,1.47,1.47,0,0,0,.33.87,1.1,1.1,0,0,0,.94.45A1.56,1.56,0,0,0,339,80a1.91,1.91,0,0,0,.58-.61Zm8.54-3.64a4.61,4.61,0,0,1,.27,1.64,4.81,4.81,0,0,1-.18,1.39,3.36,3.36,0,0,1-.47,1,2.49,2.49,0,0,1-.63.62,2.55,2.55,0,0,1-.82.35,4.7,4.7,0,0,1-1.11.12H342.8V74h2.37a5.74,5.74,0,0,1,1.23.1,2.33,2.33,0,0,1,1,.49,2.8,2.8,0,0,1,.75,1.18Zm-.67,1.62a3.2,3.2,0,0,0-.35-1.66,1.78,1.78,0,0,0-.86-.78,3.55,3.55,0,0,0-1.18-.14h-1.45V80h1.47a3.56,3.56,0,0,0,1.07-.13,1.53,1.53,0,0,0,.62-.36,2.18,2.18,0,0,0,.5-.87,4.25,4.25,0,0,0,.11-1.31ZM351.67,81h.68l2-7.12h-.68Zm6.24-.12h.91V74h-.91Zm6.15-4.51a1.3,1.3,0,0,0-.57-.42,2.08,2.08,0,0,0-.83-.16,1.79,1.79,0,0,0-1.59.82v-.71h-.76v5h.84V78.16a1.69,1.69,0,0,1,.39-1.3,1.37,1.37,0,0,1,.93-.34,1.11,1.11,0,0,1,.59.15.81.81,0,0,1,.35.41,2.27,2.27,0,0,1,.1.77v3h.85v-3a4.83,4.83,0,0,0,0-.82,1.63,1.63,0,0,0-.37-.63Zm5.35,0a1.3,1.3,0,0,0-.57-.42,2.08,2.08,0,0,0-.83-.16,1.79,1.79,0,0,0-1.59.82v-.71h-.76v5h.84V78.16a1.69,1.69,0,0,1,.39-1.3,1.37,1.37,0,0,1,.93-.34,1.11,1.11,0,0,1,.59.15.81.81,0,0,1,.35.41,2.27,2.27,0,0,1,.1.77v3h.85v-3a4.83,4.83,0,0,0,0-.82,1.63,1.63,0,0,0-.34-.63Zm5.31.09a2.56,2.56,0,0,1,.65,1.86,3.3,3.3,0,0,1-.29,1.51,2,2,0,0,1-.84.86A2.45,2.45,0,0,1,373,81a2.24,2.24,0,0,1-1.69-.67,2.68,2.68,0,0,1-.65-1.93,2.57,2.57,0,0,1,.77-2,2.32,2.32,0,0,1,1.57-.55,2.24,2.24,0,0,1,1.6.67Zm-.22,1.9a2.06,2.06,0,0,0-.42-1.4,1.39,1.39,0,0,0-2-.14l-.14.14a2.67,2.67,0,0,0,0,2.87,1.39,1.39,0,0,0,2,.14l.14-.14a2.17,2.17,0,0,0,.35-1.46Zm3.94.58q-.2.55-.31,1-.15-.52-.32-1l-1.07-3h-.89l1.9,5h.79l1.89-5h-.87Zm6.81,1.34a1.88,1.88,0,0,0,.21.6h-.88a1.82,1.82,0,0,1-.21-.65,3.15,3.15,0,0,1-.9.56,2.6,2.6,0,0,1-.93.16,1.81,1.81,0,0,1-1.26-.4,1.33,1.33,0,0,1-.44-1,1.39,1.39,0,0,1,.6-1.15,2,2,0,0,1,.61-.28,6.07,6.07,0,0,1,.75-.13,7.68,7.68,0,0,0,1.51-.29v-.22a.93.93,0,0,0-.24-.73,1.41,1.41,0,0,0-1-.29,1.5,1.5,0,0,0-.88.21,1.28,1.28,0,0,0-.42.74l-.83-.11a2,2,0,0,1,.37-.86,1.62,1.62,0,0,1,.75-.5,3.33,3.33,0,0,1,1.13-.18,3,3,0,0,1,1,.15,1.37,1.37,0,0,1,.59.38,1.33,1.33,0,0,1,.26.58,4.74,4.74,0,0,1,0,.78v1.13a12.15,12.15,0,0,0,.15,1.51Zm-.91-1.9a6.22,6.22,0,0,1-1.38.32,3.19,3.19,0,0,0-.74.17.73.73,0,0,0-.33.27.75.75,0,0,0,.14,1,1.1,1.1,0,0,0,.75.23,1.75,1.75,0,0,0,.87-.21,1.32,1.32,0,0,0,.56-.58,2,2,0,0,0,.14-.85ZM388,80.14a.56.56,0,0,1-.29-.06.35.35,0,0,1-.15-.16,1.45,1.45,0,0,1,0-.46V76.54h.85v-.66h-.85V74.14l-.84.51v1.23h-.62v.66h.62v2.87a3,3,0,0,0,.1,1,.81.81,0,0,0,.36.38,1.45,1.45,0,0,0,.71.15,3.15,3.15,0,0,0,.64-.08l-.12-.75Zm1.2.72H390v-5h-.84Zm0-5.91H390v-1h-.84ZM395,76.44a2.56,2.56,0,0,1,.65,1.86,3.3,3.3,0,0,1-.29,1.51,2,2,0,0,1-.84.86,2.45,2.45,0,0,1-1.2.31,2.24,2.24,0,0,1-1.69-.67,2.68,2.68,0,0,1-.65-1.93,2.57,2.57,0,0,1,.77-2,2.32,2.32,0,0,1,1.57-.55,2.24,2.24,0,0,1,1.62.67Zm-.22,1.9a2.06,2.06,0,0,0-.42-1.4,1.39,1.39,0,0,0-2-.14l-.14.14a2.67,2.67,0,0,0,0,2.87,1.39,1.39,0,0,0,2,.14l.14-.14a2.17,2.17,0,0,0,.37-1.46Zm5.6-2a1.31,1.31,0,0,0-.57-.42,2.08,2.08,0,0,0-.83-.16,1.79,1.79,0,0,0-1.59.82v-.71h-.76v5h.84V78.15a1.69,1.69,0,0,1,.39-1.3,1.37,1.37,0,0,1,.93-.34,1.11,1.11,0,0,1,.59.15.81.81,0,0,1,.35.41,2.28,2.28,0,0,1,.1.77v3h.84v-3a4.84,4.84,0,0,0,0-.82,1.63,1.63,0,0,0-.31-.63ZM410.3,74h-1.23l-3.42,3.41V74h-.91v6.88h.91V78.47l1.13-1.1,2.45,3.48h1.14l-3-4.09Zm.78,6.88h.84v-5h-.84Zm0-5.91h.84v-1h-.84Zm3.61,5.19a.56.56,0,0,1-.29-.06.35.35,0,0,1-.15-.16,1.45,1.45,0,0,1,0-.46V76.53h.85v-.66h-.85V74.13l-.84.51v1.23h-.62v.66h.62V79.4a3,3,0,0,0,.1,1,.81.81,0,0,0,.36.38,1.45,1.45,0,0,0,.71.15,3.15,3.15,0,0,0,.64-.08l-.12-.75Zm4-.16a1.18,1.18,0,0,1-.83.31,1.25,1.25,0,0,1-1-.46,2.24,2.24,0,0,1-.38-1.46,2.17,2.17,0,0,1,.4-1.45,1.31,1.31,0,0,1,1-.46,1.08,1.08,0,0,1,.72.25,1.37,1.37,0,0,1,.42.76l.82-.13a1.88,1.88,0,0,0-.66-1.17,2.07,2.07,0,0,0-1.33-.41,2.42,2.42,0,0,0-1.19.3,1.86,1.86,0,0,0-.81.91,3.46,3.46,0,0,0-.27,1.41,2.71,2.71,0,0,0,.62,1.92,2.14,2.14,0,0,0,1.65.67,2,2,0,0,0,1.38-.49,2.16,2.16,0,0,0,.7-1.35L419.1,79a1.52,1.52,0,0,1-.44,1ZM424,76a2,2,0,0,0-1-.22,1.89,1.89,0,0,0-1.49.69V74h-.84v6.88h.84V78.12a2.43,2.43,0,0,1,.14-.92,1.1,1.1,0,0,1,.47-.53,1.37,1.37,0,0,1,.71-.19,1,1,0,0,1,.78.29,1.3,1.3,0,0,1,.27.92v3.16h.85V77.71a2.76,2.76,0,0,0-.18-1.12,1.28,1.28,0,0,0-.58-.6Zm5.73.46a2.7,2.7,0,0,1,.63,1.92v.23h-3.72a1.92,1.92,0,0,0,.46,1.26,1.38,1.38,0,0,0,1,.44,1.3,1.3,0,0,0,.79-.24,1.62,1.62,0,0,0,.52-.78l.87.11a2.13,2.13,0,0,1-.76,1.19,2.59,2.59,0,0,1-3.16-.25,2.63,2.63,0,0,1-.64-1.89,2.75,2.75,0,0,1,.65-2,2.19,2.19,0,0,1,1.68-.69,2.13,2.13,0,0,1,1.65.73Zm-.26,1.45a1.7,1.7,0,0,0-.32-.94,1.3,1.3,0,0,0-1-.49,1.34,1.34,0,0,0-1,.39,1.54,1.54,0,0,0-.44,1Zm5.67-1.54a1.31,1.31,0,0,0-.57-.42,2.08,2.08,0,0,0-.83-.16,1.79,1.79,0,0,0-1.59.82v-.71h-.75v5h.84V78.15a1.69,1.69,0,0,1,.39-1.3,1.37,1.37,0,0,1,.93-.34,1.11,1.11,0,0,1,.59.15.81.81,0,0,1,.35.41,2.28,2.28,0,0,1,.1.77v3h.8v-3a4.84,4.84,0,0,0,0-.82,1.63,1.63,0,0,0-.3-.63ZM553.6,75a2.24,2.24,0,0,1-.35,2.42,2.68,2.68,0,0,1-2,.61h-1.76v2.8h-.91V74h2.6a6.24,6.24,0,0,1,1,.07,2.07,2.07,0,0,1,.85.32,1.68,1.68,0,0,1,.54.68Zm-.73,1a1.24,1.24,0,0,0-.22-.74,1,1,0,0,0-.58-.41,3.9,3.9,0,0,0-.85-.06h-1.76v2.46h1.78a1.89,1.89,0,0,0,1.25-.33,1.17,1.17,0,0,0,.35-.93Zm7.52-.25a4.62,4.62,0,0,1,.27,1.64,4.81,4.81,0,0,1-.18,1.39,3.35,3.35,0,0,1-.47,1,2.48,2.48,0,0,1-.63.62,2.54,2.54,0,0,1-.82.35,4.69,4.69,0,0,1-1.11.12H555V74h2.37a5.73,5.73,0,0,1,1.22.1,2.33,2.33,0,0,1,1,.49,2.8,2.8,0,0,1,.81,1.16Zm-.67,1.62a3.2,3.2,0,0,0-.35-1.66,1.78,1.78,0,0,0-.86-.78,3.55,3.55,0,0,0-1.18-.14h-1.45v5.26h1.47a3.57,3.57,0,0,0,1.07-.13,1.53,1.53,0,0,0,.62-.36,2.18,2.18,0,0,0,.5-.87,4.27,4.27,0,0,0,.15-1.33ZM567.33,74h-1L565,75.83a9.14,9.14,0,0,0-.54.78q-.25-.43-.55-.84L562.61,74h-1.08l2.35,3.3-2.66,3.59h1.09l1.73-2.4q.1-.14.33-.52l.3.46,1.73,2.46h1.13l-2.65-3.68Zm3.82,6.88h.91V74h-.91Zm6.15-4.51a1.31,1.31,0,0,0-.57-.42,2.08,2.08,0,0,0-.83-.16,1.79,1.79,0,0,0-1.59.82V75.9h-.76v5h.82V78.18a1.69,1.69,0,0,1,.39-1.3,1.37,1.37,0,0,1,.93-.34,1.11,1.11,0,0,1,.59.15.81.81,0,0,1,.35.41,2.28,2.28,0,0,1,.1.77v3h.84V77.81a4.84,4.84,0,0,0,0-.82,1.63,1.63,0,0,0-.3-.63ZM582.08,74h.84v6.88h-.78v-.67a1.55,1.55,0,0,1-1.39.74,2,2,0,0,1-1.1-.33,2.16,2.16,0,0,1-.77-.92,3.16,3.16,0,0,1-.27-1.35,3.54,3.54,0,0,1,.25-1.35,2,2,0,0,1,1.86-1.25,1.66,1.66,0,0,1,1.38.69Zm.07,4.46a2.35,2.35,0,0,0-.39-1.5,1.21,1.21,0,0,0-1-.48,1.17,1.17,0,0,0-.94.46,2.27,2.27,0,0,0-.38,1.45,2.17,2.17,0,0,0,.4,1.43,1.22,1.22,0,0,0,1,.47,1.19,1.19,0,0,0,.94-.45,2.09,2.09,0,0,0,.34-1.38Zm5.28.1a2.67,2.67,0,0,1-.14,1,1.09,1.09,0,0,1-.47.53,1.39,1.39,0,0,1-.71.19,1,1,0,0,1-.64-.19.88.88,0,0,1-.34-.52,5,5,0,0,1,0-.89V75.91h-.84V79a4.31,4.31,0,0,0,0,.79,1.58,1.58,0,0,0,.26.63,1.35,1.35,0,0,0,.57.42,2,2,0,0,0,.82.17,1.83,1.83,0,0,0,1.58-.85v.73h.76v-5h-.91Zm5.21-.32a10.45,10.45,0,0,0-1.25-.39l-.75-.22a.74.74,0,0,1-.32-.23.47.47,0,0,1-.1-.3.56.56,0,0,1,.25-.45,1.39,1.39,0,0,1,.83-.19,1.19,1.19,0,0,1,.76.22.9.9,0,0,1,.33.6l.83-.11a1.78,1.78,0,0,0-.29-.77,1.4,1.4,0,0,0-.65-.46,2.9,2.9,0,0,0-1-.17,2.56,2.56,0,0,0-.73.1,1.75,1.75,0,0,0-.54.25,1.36,1.36,0,0,0-.42.47,1.28,1.28,0,0,0-.15.62,1.23,1.23,0,0,0,.73,1.14,7.9,7.9,0,0,0,1.29.41,3.68,3.68,0,0,1,.86.29.51.51,0,0,1,.25.45.71.71,0,0,1-.28.56,1.32,1.32,0,0,1-.86.24,1.37,1.37,0,0,1-.9-.27,1.17,1.17,0,0,1-.39-.77l-.84.13a1.87,1.87,0,0,0,.65,1.2,2.34,2.34,0,0,0,1.48.4,2.59,2.59,0,0,0,1-.2,1.59,1.59,0,0,0,.71-.58,1.41,1.41,0,0,0,.25-.8,1.24,1.24,0,0,0-.2-.72,1.28,1.28,0,0,0-.63-.48Zm3.24,1.91a.56.56,0,0,1-.29-.06.35.35,0,0,1-.15-.16,1.45,1.45,0,0,1,0-.46V76.55h.85v-.66h-.92V74.15l-.84.51v1.23h-.62v.66h.62v2.87a3,3,0,0,0,.1,1,.81.81,0,0,0,.36.38,1.45,1.45,0,0,0,.71.15,3.15,3.15,0,0,0,.64-.08l-.12-.75Zm2.49-4.21a2.06,2.06,0,0,0-.54.7v-.76h-.76v5h.84V78.27a3.26,3.26,0,0,1,.14-1,.9.9,0,0,1,.31-.46.8.8,0,0,1,.5-.17,1.21,1.21,0,0,1,.62.18l.29-.78a1.65,1.65,0,0,0-.87-.27.94.94,0,0,0-.53.17Zm1.92,4.93h.85v-5h-.85Zm0-5.91h.85V74h-.85Zm6.22,5.31a1.88,1.88,0,0,0,.21.6h-.88a1.82,1.82,0,0,1-.17-.61,3.15,3.15,0,0,1-.9.56,2.6,2.6,0,0,1-.93.16,1.81,1.81,0,0,1-1.26-.4,1.33,1.33,0,0,1-.44-1,1.39,1.39,0,0,1,.6-1.15,2,2,0,0,1,.61-.28,6.06,6.06,0,0,1,.75-.13,7.68,7.68,0,0,0,1.51-.29v-.22a.93.93,0,0,0-.24-.73,1.41,1.41,0,0,0-1-.29,1.5,1.5,0,0,0-.88.21,1.28,1.28,0,0,0-.42.74l-.83-.11a2,2,0,0,1,.37-.86,1.62,1.62,0,0,1,.75-.5,3.33,3.33,0,0,1,1.13-.18,3,3,0,0,1,1,.15,1.37,1.37,0,0,1,.59.38,1.33,1.33,0,0,1,.26.58,4.74,4.74,0,0,1,0,.78v1.13a12.15,12.15,0,0,0,.13,1.46Zm-.91-1.9a6.22,6.22,0,0,1-1.38.32,3.19,3.19,0,0,0-.74.17.73.73,0,0,0-.33.27.75.75,0,0,0,.14,1,1.1,1.1,0,0,0,.75.23,1.75,1.75,0,0,0,.87-.21,1.32,1.32,0,0,0,.56-.58,2,2,0,0,0,.14-.85Zm2.15,2.5h.84V74h-.84Zm10.35-5.11a4.6,4.6,0,0,1,.27,1.64,4.81,4.81,0,0,1-.18,1.39,3.38,3.38,0,0,1-.47,1,2.51,2.51,0,0,1-.63.62,2.56,2.56,0,0,1-.82.35,4.7,4.7,0,0,1-1.11.12h-2.48V74h2.37a5.74,5.74,0,0,1,1.23.1,2.33,2.33,0,0,1,1,.49,2.8,2.8,0,0,1,.78,1.17Zm-.67,1.62a3.2,3.2,0,0,0-.35-1.66,1.78,1.78,0,0,0-.86-.78A3.55,3.55,0,0,0,615,74.8h-1.45v5.26h1.47a3.56,3.56,0,0,0,1.07-.13,1.53,1.53,0,0,0,.62-.36,2.17,2.17,0,0,0,.5-.87,4.24,4.24,0,0,0,.12-1.32Zm5.76-.92a2.7,2.7,0,0,1,.63,1.92v.23h-3.75a1.92,1.92,0,0,0,.46,1.26,1.38,1.38,0,0,0,1,.44,1.3,1.3,0,0,0,.79-.24,1.62,1.62,0,0,0,.52-.78l.87.11a2.13,2.13,0,0,1-.76,1.19,2.59,2.59,0,0,1-3.16-.25,2.63,2.63,0,0,1-.64-1.89,2.75,2.75,0,0,1,.65-2,2.19,2.19,0,0,1,1.68-.69,2.13,2.13,0,0,1,1.68.7Zm-.26,1.45a1.7,1.7,0,0,0-.32-.94,1.3,1.3,0,0,0-1-.49,1.34,1.34,0,0,0-1,.39,1.54,1.54,0,0,0-.44,1Zm5,.34a10.45,10.45,0,0,0-1.25-.39l-.75-.22a.74.74,0,0,1-.32-.23.46.46,0,0,1-.1-.3.56.56,0,0,1,.25-.45,1.38,1.38,0,0,1,.83-.19,1.2,1.2,0,0,1,.76.22.9.9,0,0,1,.33.6l.83-.11a1.8,1.8,0,0,0-.29-.77,1.4,1.4,0,0,0-.66-.46,2.89,2.89,0,0,0-1-.17,2.55,2.55,0,0,0-.73.1,1.74,1.74,0,0,0-.54.25,1.37,1.37,0,0,0-.42.47,1.29,1.29,0,0,0-.15.62,1.23,1.23,0,0,0,.73,1.14,7.89,7.89,0,0,0,1.29.41,3.65,3.65,0,0,1,.86.29.51.51,0,0,1,.25.45.71.71,0,0,1-.28.56,1.32,1.32,0,0,1-.86.24,1.36,1.36,0,0,1-.9-.27,1.17,1.17,0,0,1-.44-.83l-.83.13a1.88,1.88,0,0,0,.65,1.2,2.35,2.35,0,0,0,1.48.4,2.6,2.6,0,0,0,1-.2,1.59,1.59,0,0,0,.65-.53,1.42,1.42,0,0,0,.25-.8,1.24,1.24,0,0,0-.2-.72,1.28,1.28,0,0,0-.55-.48Zm1.77,2.63h.84v-5h-.84Zm0-5.91h.84V74h-.84Zm5.42.92h.78v4.32a4.08,4.08,0,0,1-.24,1.65,1.74,1.74,0,0,1-.75.77,2.61,2.61,0,0,1-1.27.28,2.39,2.39,0,0,1-1.44-.4,1.36,1.36,0,0,1-.53-1.21l.82.12a.78.78,0,0,0,.29.55,1.41,1.41,0,0,0,.86.23,1.51,1.51,0,0,0,.91-.23,1.16,1.16,0,0,0,.43-.66,5.49,5.49,0,0,0,.06-1.08,1.74,1.74,0,0,1-1.38.65,1.88,1.88,0,0,1-1.59-.74,2.86,2.86,0,0,1-.56-1.78,3.31,3.31,0,0,1,.26-1.32,2.06,2.06,0,0,1,.75-.93,2,2,0,0,1,1.15-.33,1.79,1.79,0,0,1,1.46.71Zm0,2.43a2,2,0,0,0-.41-1.38,1.25,1.25,0,0,0-1-.46,1.22,1.22,0,0,0-1,.46,2,2,0,0,0-.39,1.36,2.16,2.16,0,0,0,.39,1.43,1.28,1.28,0,0,0,2,0,2.09,2.09,0,0,0,.34-1.41Zm5.81-2a1.3,1.3,0,0,0-.57-.42,2.08,2.08,0,0,0-.83-.16,1.79,1.79,0,0,0-1.59.82v-.71h-.76v5H638V78.13a1.69,1.69,0,0,1,.39-1.3,1.37,1.37,0,0,1,.93-.34,1.11,1.11,0,0,1,.59.15.81.81,0,0,1,.35.41,2.26,2.26,0,0,1,.1.77v3h.85v-3a4.82,4.82,0,0,0,0-.82,1.63,1.63,0,0,0-.38-.63Zm5.26-2.37h-.91v6.88h4.3V80h-3.39Zm5.35,0h-.91v6.88h4.3V80h-3.39Zm8.67,5.78a2,2,0,0,1-1.3.44,2.23,2.23,0,0,1-1.17-.32,1.91,1.91,0,0,1-.8-1,4.21,4.21,0,0,1-.26-1.53A4.1,4.1,0,0,1,656.9,76a2,2,0,0,1,.75-1,2.23,2.23,0,0,1,1.33-.38,1.85,1.85,0,0,1,1.15.34,2.13,2.13,0,0,1,.7,1.09l.9-.21a2.73,2.73,0,0,0-1-1.48,2.82,2.82,0,0,0-1.74-.53,3.41,3.41,0,0,0-1.67.42,2.81,2.81,0,0,0-1.17,1.22,4,4,0,0,0-.41,1.88,4.67,4.67,0,0,0,.36,1.85,2.83,2.83,0,0,0,1.06,1.31A3.27,3.27,0,0,0,659,81a2.84,2.84,0,0,0,1.82-.59,3.07,3.07,0,0,0,1-1.71l-.91-.23a2.26,2.26,0,0,1-.76,1.34Zm-401.4-32.3q.19-.2.86-.76a12.1,12.1,0,0,0,1.15-1.07,2.78,2.78,0,0,0,.49-.74,1.82,1.82,0,0,0,.06-.65,1.59,1.59,0,0,0-.51-1.2,1.92,1.92,0,0,0-1.38-.48,2,2,0,0,0-1.38.45,1.88,1.88,0,0,0-.59,1.31l.77.08a1.22,1.22,0,0,1,.33-.89,1.16,1.16,0,0,1,.86-.32,1.14,1.14,0,0,1,.83.3,1,1,0,0,1,.32.75,1.54,1.54,0,0,1-.35.9,8.28,8.28,0,0,1-1.34,1.29,7.62,7.62,0,0,0-1,.92,2.73,2.73,0,0,0-.49.81,1.32,1.32,0,0,0-.09.52h4v-.72h-3a2.48,2.48,0,0,1,.38-.46Zm7.28-3.31a6,6,0,0,1,.14,1.43,5.55,5.55,0,0,1-.22,1.72,2.15,2.15,0,0,1-.66,1,1.85,1.85,0,0,1-2.48-.27,4,4,0,0,1-.6-2.47,5.54,5.54,0,0,1,.22-1.73,2.15,2.15,0,0,1,.66-1,1.68,1.68,0,0,1,1.1-.36,1.8,1.8,0,0,1,.86.2,1.64,1.64,0,0,1,.61.57,3.06,3.06,0,0,1,.28,1Zm-.63,1.43a3.8,3.8,0,0,0-.35-2,1,1,0,0,0-1.69-.06,3.85,3.85,0,0,0-.38,2,3.81,3.81,0,0,0,.35,2,1,1,0,0,0,1.73,0,3.81,3.81,0,0,0,.25-1.9Zm5.34-1.43a6,6,0,0,1,.14,1.43,5.55,5.55,0,0,1-.22,1.72,2.15,2.15,0,0,1-.66,1,1.85,1.85,0,0,1-2.48-.27,4,4,0,0,1-.6-2.47,5.54,5.54,0,0,1,.22-1.73,2.15,2.15,0,0,1,.66-1,1.68,1.68,0,0,1,1.1-.36,1.8,1.8,0,0,1,.86.2,1.64,1.64,0,0,1,.61.57,3.06,3.06,0,0,1,.29,1Zm-.63,1.43a3.8,3.8,0,0,0-.35-2,1,1,0,0,0-1.69-.06,3.85,3.85,0,0,0-.38,2,3.81,3.81,0,0,0,.35,2,1,1,0,0,0,1.73,0,3.81,3.81,0,0,0,.26-1.9Zm3.91,1.54h-2.71v-.68l2.77-3.93h.61v3.93h.82v.68h-.82v1.45H274Zm0-.68v-2.7l-1.9,2.74Zm160.74,1.42h-3a2.48,2.48,0,0,1,.31-.4q.19-.2.86-.76a11.94,11.94,0,0,0,1.15-1.07,2.78,2.78,0,0,0,.5-.74,1.81,1.81,0,0,0,.15-.72,1.59,1.59,0,0,0-.51-1.2,1.92,1.92,0,0,0-1.38-.48,2,2,0,0,0-1.38.45,1.88,1.88,0,0,0-.59,1.31l.77.08a1.22,1.22,0,0,1,.33-.89,1.16,1.16,0,0,1,.86-.32,1.14,1.14,0,0,1,.83.3,1,1,0,0,1,.32.75,1.54,1.54,0,0,1-.35.9,8.31,8.31,0,0,1-1.34,1.29,7.65,7.65,0,0,0-1,.92,2.72,2.72,0,0,0-.49.81,1.31,1.31,0,0,0-.09.52h4Zm4.62-3.71a6,6,0,0,1,.14,1.43,5.59,5.59,0,0,1-.22,1.72,2.16,2.16,0,0,1-.66,1,1.68,1.68,0,0,1-1.1.36,1.66,1.66,0,0,1-1.38-.63,4,4,0,0,1-.6-2.47,5.55,5.55,0,0,1,.22-1.73,2.15,2.15,0,0,1,.66-1,1.68,1.68,0,0,1,1.1-.36,1.8,1.8,0,0,1,.86.2,1.65,1.65,0,0,1,.61.57,3,3,0,0,1,.3,1Zm-.63,1.43a3.8,3.8,0,0,0-.35-2,1,1,0,0,0-1.69-.06,3.85,3.85,0,0,0-.38,2,3.8,3.8,0,0,0,.35,2,1,1,0,0,0,1.73,0,3.8,3.8,0,0,0,.26-1.9Zm5.34-1.43a6,6,0,0,1,.14,1.43,5.59,5.59,0,0,1-.22,1.72,2.16,2.16,0,0,1-.66,1,1.68,1.68,0,0,1-1.1.36,1.66,1.66,0,0,1-1.38-.63,4,4,0,0,1-.6-2.47,5.55,5.55,0,0,1,.22-1.73,2.15,2.15,0,0,1,.66-1,1.68,1.68,0,0,1,1.1-.36,1.8,1.8,0,0,1,.86.2,1.65,1.65,0,0,1,.61.57,3,3,0,0,1,.3,1Zm-.63,1.43a3.8,3.8,0,0,0-.35-2,1,1,0,0,0-1.69-.06,3.85,3.85,0,0,0-.38,2,3.8,3.8,0,0,0,.35,2,1,1,0,0,0,1.73,0,3.8,3.8,0,0,0,.27-1.9Zm4.66,1.2a3.71,3.71,0,0,0,.11-.91v-.15a1.7,1.7,0,0,1-.61.58,1.65,1.65,0,0,1-.84.22,1.69,1.69,0,0,1-1.27-.55,2.29,2.29,0,0,1,0-2.93,1.82,1.82,0,0,1,1.36-.56,2,2,0,0,1,1.83,1.23,4.49,4.49,0,0,1,.25,1.71,5.53,5.53,0,0,1-.25,1.85,2.18,2.18,0,0,1-.75,1,2,2,0,0,1-1.17.36,1.6,1.6,0,0,1-1.7-1.49v0l.72-.07a1.24,1.24,0,0,0,.35.73,1,1,0,0,0,.66.23,1.14,1.14,0,0,0,.6-.16,1.29,1.29,0,0,0,.42-.42,2.46,2.46,0,0,0,.2-.61Zm0-2.28a1.46,1.46,0,0,0-.34-1,1.07,1.07,0,0,0-.82-.38,1.13,1.13,0,0,0-.87.41,1.51,1.51,0,0,0-.37,1,1.3,1.3,0,0,0,.35.94,1.15,1.15,0,0,0,.86.36,1.11,1.11,0,0,0,.85-.36,1.43,1.43,0,0,0,.29-1ZM43.24,27.09A4.41,4.41,0,0,1,45,24.88c-4.09.85-7.28,2.61-7.3,7.52C41,35,45,28.9,41.71,26.87,42.28,26.87,43,26.78,43.24,27.09ZM37,26.65c-2.22,1.25-5.82,4.15-3.76,7.52,3.13.64,4.65-4.56,1.77-5.31,1.32.14,2.59-1.92,2-2.21Zm6,6.42c2.07,2.06,5.3-1.74,3.76-3.32,1.1.55,1.86-.47,2.66-.89-3.51.05-6.19.91-6.44,4.2ZM25.37,60.28c-.32,1.82-1.07,3.21-1.33,5.09H36.61c.52-1.7,1-3.42,1.55-5.09Zm6.15-30.07c-1.61,1.17-4.07,3.43-2.66,6.2,2.86.63,3.53-3.92,1.11-4.2C31.18,32.35,31.47,30.45,31.52,30.21Zm8.19,7.52c1.6.4,2.17,2.24,2.43,4.43,1.3-1.36,1.33-4,2.21-5.75-9.61-5.2-19.68,4.5-19.47,13.69.24,10.38,14.39,10.5,15.93,2.21-2,4.09-8.94,4.59-9.74-.44-.92-5.84,3.69-15.4,8.63-14.16Zm99.24.88c1.07.68,2.12,1.38,3.21,2-.27-1.28-.65-2.46-.95-3.72,1-.85,2-1.64,3-2.48-1.32,0-2.58-.14-3.87-.22-.52-1.16-.87-2.48-1.46-3.57a26.36,26.36,0,0,1-1.51,3.59c-1.23.13-2.64.08-3.79.29a24.51,24.51,0,0,1,3,2.48,28.38,28.38,0,0,0-.88,3.65c1.08-.71,2.13-1.42,3.24-2Zm22.1,8.1a15.44,15.44,0,0,0,2.41-.07,43.59,43.59,0,0,0-.07-4.74,11.9,11.9,0,0,0-2.12.07,15.13,15.13,0,0,0-9.77,4,10.52,10.52,0,0,0-1.17,1.17c-1.13,1.33-2.35,2.56-3.5,3.87a5,5,0,0,0-.8.8,10.43,10.43,0,0,1-6.42,2.84,15.44,15.44,0,0,0-2.41.07,43.59,43.59,0,0,0,.07,4.74,12.72,12.72,0,0,0,2.19-.07c5.68-.24,8.78-3,11.52-6S156,47.13,161,46.68Zm51.49-.07V41.9c-4.35,0-8.9-.1-13.13.07a8.55,8.55,0,0,0-5.11,1.9,4.53,4.53,0,0,0-1,1v.07a8.59,8.59,0,0,0-2.19,5.47c-.17,2.89,0,6.1-.07,9.12a13,13,0,0,0,2.33.07,10,10,0,0,0,2.48,0,8.29,8.29,0,0,0,.07-2.26V50.07a3.82,3.82,0,0,1,3.43-3.36c4.36-.08,8.93.07,13.19-.1Zm27.83,4.42a8.51,8.51,0,0,1-2,5.32,7,7,0,0,0-1,1,9.19,9.19,0,0,1-5.32,2.12c-3,.12-6.54.12-9.55,0-4.89-.62-7.75-3.29-8.32-8.24a1.48,1.48,0,0,1,0-1,8.48,8.48,0,0,1,2.12-5.32,5,5,0,0,1,.8-.8A8.56,8.56,0,0,1,222.47,42c5.86-.17,12,0,18-.07C240.37,44.91,240.5,48.14,240.37,51.06Zm-4.74-4.45v.07H222.31a3.84,3.84,0,0,0-3.43,3.5v1a3.9,3.9,0,0,0,3.94,3.57h8.83A3.89,3.89,0,0,0,235.59,51a26.3,26.3,0,0,0,0-4.37ZM188.29,59.45V54.71c-4.52-.17-9.36,0-14-.07A3.82,3.82,0,0,1,170.94,51v-4.3h17.29a31.82,31.82,0,0,0,0-4.81H170.89V39.55a10.55,10.55,0,0,0,0-2.41,6.56,6.56,0,0,0-1.17,0,32.08,32.08,0,0,0-3.65.07c0,4.59-.1,9.38.07,13.86a8.53,8.53,0,0,0,2,5.32,6.94,6.94,0,0,0,.95,1,9.16,9.16,0,0,0,5.32,2.12c4.42.17,9.17,0,13.71.07.06-.06.07-.1.13-.08ZM134.42,42a10.13,10.13,0,0,1,0,2.19V59.44h-4.67c0-3.09.1-6.37-.07-9.34h-.07q-3.51,3.42-6.93,6.93a1,1,0,0,0-.36.36,9.2,9.2,0,0,1-5.25,2h-7c-.51,0-2.07.16-2.26-.07a8.7,8.7,0,0,1,0-2.19V50.42a9.1,9.1,0,0,1,2.11-5.54,7,7,0,0,0,.95-1,8.58,8.58,0,0,1,5.25-2h16.12A8.42,8.42,0,0,1,134.42,42Zm-8.1,4.67c-3.26-.12-7-.12-10.28,0a3.84,3.84,0,0,0-3.43,3.5,28,28,0,0,0,0,4.52,22.9,22.9,0,0,0,4.08,0,3.9,3.9,0,0,0,2.63-1q3.55-3.49,7-7Zm211.31,16,84.07-36.2L338.55,49.06c-7,1.9-12.57,1.7-15.78-.62-8.23-5.92-2.09-18,.14-21.62a107.74,107.74,0,0,0-11,13.68c-4.84,7.56-6.87,15.81-3.53,21.08,6,9.49,20.21,5,29.26,1.1Zm-263.26-30a.37.37,0,0,0,0,.52h0l13.53,12L74.37,57.09a.38.38,0,0,0,.5.56L89,45.12,74.87,32.6A.37.37,0,0,0,74.37,32.63Zm370.26,0a.38.38,0,0,0,0,.53l13.53,12-13.53,12a.38.38,0,0,0,.5.57L459.3,45.2,445.13,32.67a.37.37,0,0,0-.52,0h0Zm-172.49,0a.38.38,0,1,0-.5.56l13.53,12-13.53,12a.38.38,0,1,0,.5.56l14.17-12.53ZM.37,13.84h724a.38.38,0,0,0,0-.75H.37a.38.38,0,0,0,0,.75Z" transform="translate(-0.05 0.03)"/></svg>