<svg id="Layer_1" data-name="Layer 1" xmlns="http://www.w3.org/2000/svg" viewBox="0 0 69.4 47.09"><defs><style>.cls-1{fill:#000000;}</style></defs><title>PDXweb_EmailIcon</title><path class="cls-1" d="M434.77,562.08H383.85a9.26,9.26,0,0,0-9.24,9.24v28.6a9.26,9.26,0,0,0,9.24,9.24h50.91a9.26,9.26,0,0,0,9.24-9.24v-28.6A9.26,9.26,0,0,0,434.77,562.08Zm-50.91,5.1h50.91a4.12,4.12,0,0,1,1.51.29c-8.36,6.49-25,19.38-25.83,20a1.79,1.79,0,0,1-2.27,0c-.84-.6-17.46-13.49-25.83-20A4.12,4.12,0,0,1,383.85,567.18Zm-4.14,32.74v-28.6c0-.12,0-.24,0-.36L397.86,585,379.78,600.7A4.15,4.15,0,0,1,379.71,599.93Zm55.06,4.14H383.85a4.13,4.13,0,0,1-1.11-.15l18.65-16.17c2.34,1.81,4,3.05,4.23,3.25a6,6,0,0,0,3.55,1.23h.27A6,6,0,0,0,413,591c.27-.2,1.9-1.44,4.23-3.25l18.65,16.17A4.13,4.13,0,0,1,434.77,604.07Zm4.14-4.14a4.15,4.15,0,0,1-.07.77L420.76,585,438.89,571c0,.12,0,.24,0,.36Z" transform="translate(-374.61 -562.08)"/></svg>