<svg xmlns="http://www.w3.org/2000/svg" viewBox="0 0 667.4 156.62"><defs><style>.cls-1{isolation:isolate;}.cls-2{mix-blend-mode:multiply;}.cls-3{fill:#fff;}</style></defs><title>PDXpillLogo_White</title><g class="cls-1"><g id="Layer_1" data-name="Layer 1"><g class="cls-2"><path class="cls-3" d="M496.39,441.14a12,12,0,0,0-3.88-3.17,9.92,9.92,0,0,0-4.33-1,10.73,10.73,0,0,0-10.71,10.73,10.43,10.43,0,0,0,1.37,5.27,10.06,10.06,0,0,0,3.89,3.81,10.91,10.91,0,0,0,10,.4,10.1,10.1,0,0,0,3.68-2.92v1.06a11.35,11.35,0,0,1-.8,5,6.23,6.23,0,0,1-2.68,2.55,9.57,9.57,0,0,1-4.6,1,9.81,9.81,0,0,1-4.63-1,7.66,7.66,0,0,1-3.05-3h-2.89a12,12,0,0,0,2.45,3.71,9.59,9.59,0,0,0,3.45,2,14.26,14.26,0,0,0,4.79.75,11.94,11.94,0,0,0,6.22-1.54,8.29,8.29,0,0,0,3.63-4.4,19.46,19.46,0,0,0,.76-6.37v-16.5h-2.66Zm-2.1,12.39a9,9,0,0,1-11.83,0,7.54,7.54,0,0,1-2.28-5.63,8.27,8.27,0,0,1,1.1-4.18,7.93,7.93,0,0,1,3-3,8.42,8.42,0,0,1,4.21-1.09,8.09,8.09,0,0,1,4.05,1.07,7.5,7.5,0,0,1,2.91,2.9,8.42,8.42,0,0,1,1,4.18A7.79,7.79,0,0,1,494.29,453.53Z" transform="translate(-304.17 -309.74)"/><path class="cls-3" d="M425,441a10.21,10.21,0,0,0-8.46-4,9.89,9.89,0,0,0-8.21,3.92,11.05,11.05,0,0,0-2.42,7,11.2,11.2,0,0,0,2.86,7.51,9.89,9.89,0,0,0,7.92,3.32,11.34,11.34,0,0,0,4.09-.69,10.14,10.14,0,0,0,3.26-2,12.28,12.28,0,0,0,2.55-3.5l-2.25-1.18a12.47,12.47,0,0,1-2.27,2.94,8.1,8.1,0,0,1-2.54,1.46,8.81,8.81,0,0,1-3.08.55,7.35,7.35,0,0,1-5.51-2.31,8.42,8.42,0,0,1-2.3-5.91h18.63A11.22,11.22,0,0,0,425,441Zm-16.08,4.78a8.85,8.85,0,0,1,2.42-4.28,7.59,7.59,0,0,1,5.24-2,8.26,8.26,0,0,1,3.52.78,7.38,7.38,0,0,1,2.7,2.06,8.84,8.84,0,0,1,1.55,3.41Z" transform="translate(-304.17 -309.74)"/><path class="cls-3" d="M463.86,429a2.09,2.09,0,0,0-1.53.65,2.13,2.13,0,0,0-.64,1.56,2.11,2.11,0,0,0,.64,1.54,2.09,2.09,0,0,0,1.53.65,2.2,2.2,0,0,0,0-4.4Z" transform="translate(-304.17 -309.74)"/><path class="cls-3" d="M527.11,438.19A7.34,7.34,0,0,0,523,437a8.69,8.69,0,0,0-4.22,1.06,11.11,11.11,0,0,0-3.54,3.19v-3.71h-2.66v20.71h2.66v-7.59a27.64,27.64,0,0,1,.38-5.63,7.48,7.48,0,0,1,2.52-4,6.57,6.57,0,0,1,4.33-1.6,5.37,5.37,0,0,1,3.43,1,5.24,5.24,0,0,1,1.77,3.09,24.19,24.19,0,0,1,.3,4.78v9.88h2.66V447.59a16.82,16.82,0,0,0-.86-6.22A7,7,0,0,0,527.11,438.19Z" transform="translate(-304.17 -309.74)"/><path class="cls-3" d="M445.35,446.47a10.74,10.74,0,0,1-3.2-2.19,3,3,0,0,1-.76-1.92,2.64,2.64,0,0,1,.92-2,3.15,3.15,0,0,1,2.22-.86,6.15,6.15,0,0,1,4.18,2.07l1.71-1.77q-2.9-2.8-5.76-2.8a5.61,5.61,0,0,0-4.07,1.56,5.23,5.23,0,0,0-1.61,3.92,5.36,5.36,0,0,0,1,3.22,10.72,10.72,0,0,0,3.81,2.86,12,12,0,0,1,3.35,2.21,3.1,3.1,0,0,1,.74,2,3.17,3.17,0,0,1-1.12,2.42,3.9,3.9,0,0,1-2.73,1,5.82,5.82,0,0,1-4.33-2.3l-1.68,1.9a7.45,7.45,0,0,0,2.7,2.15,7.85,7.85,0,0,0,3.42.78,6.11,6.11,0,0,0,4.48-1.77,5.83,5.83,0,0,0,1.79-4.32,5.41,5.41,0,0,0-1-3.25A12,12,0,0,0,445.35,446.47Z" transform="translate(-304.17 -309.74)"/><rect class="cls-3" x="158.37" y="127.8" width="2.66" height="20.71"/><path class="cls-3" d="M390.44,441.35a10.5,10.5,0,0,0-3.63-3.25A9.77,9.77,0,0,0,382.2,437a10.24,10.24,0,0,0-7.56,3.18,10.49,10.49,0,0,0-3.14,7.65,10.69,10.69,0,0,0,3.11,7.76,10.5,10.5,0,0,0,12.07,2.16,11.43,11.43,0,0,0,3.76-3.06v3.56h2.63V426.67h-2.63Zm-.88,10.89a7.72,7.72,0,0,1-3,3,8.33,8.33,0,0,1-4.14,1.1,7.88,7.88,0,0,1-4.06-1.11,8.17,8.17,0,0,1-3-3.11,8.39,8.39,0,0,1,0-8.36,8,8,0,0,1,7.1-4.16,7.84,7.84,0,0,1,5.83,2.41,8.24,8.24,0,0,1,2.37,6A8.51,8.51,0,0,1,389.56,452.24Z" transform="translate(-304.17 -309.74)"/><path class="cls-3" d="M738.82,437a10.25,10.25,0,0,0-7.95,3.48,11.09,11.09,0,0,0,.16,15,10.94,10.94,0,0,0,15.55,0,11.11,11.11,0,0,0,.16-15.06A10.26,10.26,0,0,0,738.82,437Zm7,15.19a7.72,7.72,0,0,1-2.94,3,8.37,8.37,0,0,1-8.14,0,7.7,7.7,0,0,1-2.94-3,8.44,8.44,0,0,1-1.09-4.19,8.21,8.21,0,0,1,2.39-5.94,7.86,7.86,0,0,1,11.41,0,8.19,8.19,0,0,1,2.4,5.94A8.43,8.43,0,0,1,745.82,452.2Z" transform="translate(-304.17 -309.74)"/><rect class="cls-3" x="532.7" y="127.8" width="2.67" height="20.71"/><path class="cls-3" d="M862.67,437a10.25,10.25,0,0,0-7.95,3.48,11.09,11.09,0,0,0,.16,15,10.94,10.94,0,0,0,15.55,0,11.11,11.11,0,0,0,.16-15.06A10.26,10.26,0,0,0,862.67,437Zm7,15.19a7.71,7.71,0,0,1-2.94,3,8.38,8.38,0,0,1-8.14,0,7.7,7.7,0,0,1-2.94-3,8.42,8.42,0,0,1-1.09-4.19,8.21,8.21,0,0,1,2.38-5.94,7.86,7.86,0,0,1,11.41,0,8.19,8.19,0,0,1,2.4,5.94A8.42,8.42,0,0,1,869.67,452.2Z" transform="translate(-304.17 -309.74)"/><path class="cls-3" d="M705.77,437a10.18,10.18,0,0,0-4.55,1,11.28,11.28,0,0,0-3.74,3.07V429.55h-2.66v28.7h2.66v-3.81a10.68,10.68,0,0,0,3.63,3.25,9.67,9.67,0,0,0,4.58,1.08,10.22,10.22,0,0,0,7.55-3.18,10.51,10.51,0,0,0,3.14-7.67,10.67,10.67,0,0,0-3.11-7.74A10.1,10.1,0,0,0,705.77,437Zm6.79,15a8,8,0,0,1-7.09,4.17,7.82,7.82,0,0,1-5.82-2.42,8.26,8.26,0,0,1-2.36-6,8.53,8.53,0,0,1,1.05-4.24,7.77,7.77,0,0,1,3-3,8.3,8.3,0,0,1,4.15-1.11,7.82,7.82,0,0,1,4,1.11,8.17,8.17,0,0,1,3,3.11,8.45,8.45,0,0,1,0,8.39Z" transform="translate(-304.17 -309.74)"/><path class="cls-3" d="M766.62,437.89a9.52,9.52,0,0,0-2.57,2.67v-3h-2.72v20.71H764v-7a32.46,32.46,0,0,1,.5-7.16,6.9,6.9,0,0,1,1.88-3.4A3.86,3.86,0,0,1,769,439.6a3.74,3.74,0,0,1,1.41.36l1.39-2.24a4.85,4.85,0,0,0-2.36-.7A5.06,5.06,0,0,0,766.62,437.89Z" transform="translate(-304.17 -309.74)"/><polygon class="cls-3" points="517.08 117.24 514.42 117.24 514.42 127.8 510.78 127.8 510.78 130.11 514.42 130.11 514.42 148.51 517.08 148.51 517.08 130.11 521.31 130.11 521.31 127.8 517.08 127.8 517.08 117.24"/><path class="cls-3" d="M799.86,441.35a10.5,10.5,0,0,0-3.63-3.25,9.77,9.77,0,0,0-4.61-1.08,10.24,10.24,0,0,0-7.56,3.18,10.49,10.49,0,0,0-3.14,7.65,10.69,10.69,0,0,0,3.11,7.76,10.5,10.5,0,0,0,12.06,2.16,11.43,11.43,0,0,0,3.76-3.06v3.56h2.63V437.54h-2.63ZM799,452.24a7.73,7.73,0,0,1-3,3,8.33,8.33,0,0,1-4.14,1.1,7.88,7.88,0,0,1-4.06-1.11,8.19,8.19,0,0,1-3-3.11,8.4,8.4,0,0,1,0-8.36,8,8,0,0,1,7.1-4.16,7.84,7.84,0,0,1,5.83,2.41,8.24,8.24,0,0,1,2.37,6A8.53,8.53,0,0,1,799,452.24Z" transform="translate(-304.17 -309.74)"/><path class="cls-3" d="M838.2,429a2.09,2.09,0,0,0-1.53.65,2.13,2.13,0,0,0-.64,1.56,2.19,2.19,0,0,0,4.38,0,2.14,2.14,0,0,0-.64-1.56A2.11,2.11,0,0,0,838.2,429Z" transform="translate(-304.17 -309.74)"/><path class="cls-3" d="M678.23,441.35a10.52,10.52,0,0,0-3.63-3.25A9.78,9.78,0,0,0,670,437a10.24,10.24,0,0,0-7.55,3.18,10.49,10.49,0,0,0-3.14,7.65,10.69,10.69,0,0,0,3.11,7.76,10.5,10.5,0,0,0,12.06,2.16,11.44,11.44,0,0,0,3.76-3.06v3.56h2.62V437.54h-2.62Zm-.88,10.89a7.72,7.72,0,0,1-3,3,8.34,8.34,0,0,1-4.14,1.1,7.88,7.88,0,0,1-4.06-1.11,8.17,8.17,0,0,1-3-3.11,8.39,8.39,0,0,1,0-8.36,8,8,0,0,1,7.1-4.16A7.84,7.84,0,0,1,676,442a8.24,8.24,0,0,1,2.37,6A8.51,8.51,0,0,1,677.34,452.24Z" transform="translate(-304.17 -309.74)"/><rect class="cls-3" x="324.46" y="116.93" width="2.66" height="31.58"/><path class="cls-3" d="M605.51,437a10.25,10.25,0,0,0-7.95,3.48,11.09,11.09,0,0,0,.16,15,10.94,10.94,0,0,0,15.56,0,11.11,11.11,0,0,0,.16-15.06A10.26,10.26,0,0,0,605.51,437Zm7,15.19a7.74,7.74,0,0,1-2.94,3,8.38,8.38,0,0,1-8.14,0,7.71,7.71,0,0,1-2.94-3,8.42,8.42,0,0,1-1.09-4.19,8.21,8.21,0,0,1,2.38-5.94,7.86,7.86,0,0,1,11.41,0,8.19,8.19,0,0,1,2.4,5.94A8.42,8.42,0,0,1,612.51,452.2Z" transform="translate(-304.17 -309.74)"/><path class="cls-3" d="M903.39,441.37a7,7,0,0,0-2.66-3.18,7.34,7.34,0,0,0-4.12-1.18,8.69,8.69,0,0,0-4.22,1.06,11.14,11.14,0,0,0-3.54,3.19v-3.71h-2.66v20.71h2.66v-7.59a27.62,27.62,0,0,1,.38-5.63,7.47,7.47,0,0,1,2.52-4,6.57,6.57,0,0,1,4.33-1.6,5.36,5.36,0,0,1,3.43,1,5.24,5.24,0,0,1,1.78,3.09,24.3,24.3,0,0,1,.3,4.78v9.88h2.67V447.59A16.82,16.82,0,0,0,903.39,441.37Z" transform="translate(-304.17 -309.74)"/><path class="cls-3" d="M573.22,439.52a8.85,8.85,0,0,1,7.47,3.63l2.11-1.31a8.92,8.92,0,0,0-2.27-2.57,11,11,0,0,0-3.24-1.64,12.6,12.6,0,0,0-4-.63,12.14,12.14,0,0,0-5.92,1.45,10.65,10.65,0,0,0-4.16,4,10.84,10.84,0,0,0-1.51,5.59,10.15,10.15,0,0,0,3.23,7.59,11.25,11.25,0,0,0,8.15,3.12,12.76,12.76,0,0,0,5.7-1.23,10,10,0,0,0,4-3.47l-2.11-1.39a9.55,9.55,0,0,1-11.95,2.53,8.07,8.07,0,0,1-3.16-3.1,8.39,8.39,0,0,1-1.15-4.26,7.94,7.94,0,0,1,2.5-5.91A8.65,8.65,0,0,1,573.22,439.52Z" transform="translate(-304.17 -309.74)"/><rect class="cls-3" x="340.05" y="116.93" width="2.66" height="31.58"/><path class="cls-3" d="M356.56,335.67h14.08v5.82a29.24,29.24,0,0,1,44.28,11A29.26,29.26,0,0,1,459.87,342V309.74H368.27l-.86,0-10.43,0a52.8,52.8,0,0,0-52.8,52.8v2.06a52.79,52.79,0,0,0,52.39,52.79V335.67Z" transform="translate(-304.17 -309.74)"/><rect class="cls-3" x="52.39" y="107.65" height="0.01"/><polygon class="cls-3" points="169.88 37.33 169.88 72.79 187.62 55.06 169.88 37.33"/><path class="cls-3" d="M426.49,365.31A15.35,15.35,0,1,0,441.84,350,15.35,15.35,0,0,0,426.49,365.31Z" transform="translate(-304.17 -309.74)"/><path class="cls-3" d="M875.87,341.9a22.11,22.11,0,0,0-19.5,11.43,23.09,23.09,0,0,0,0,23,22.48,22.48,0,0,0,8.28,8.54,21.6,21.6,0,0,0,11.15,3.06,22.88,22.88,0,0,0,11.39-3,21.2,21.2,0,0,0,8.28-8.19A23.53,23.53,0,0,0,898.37,365a22.62,22.62,0,0,0-6.5-16.49A21.55,21.55,0,0,0,875.87,341.9Z" transform="translate(-304.17 -309.74)"/><path class="cls-3" d="M918.77,309.74v83.45h-7.31V309.74H777.17V310h0v26.29h11.6v6.32h-11.6v50.55h-7.31V342.64h-10v-6.32h10V309.74H664.45v83.45h-7.21v-9.78a31.28,31.28,0,0,1-10.32,8.41,28.85,28.85,0,0,1-33.14-5.92,29.38,29.38,0,0,1-8.55-21.31,28.84,28.84,0,0,1,8.63-21,28.11,28.11,0,0,1,20.75-8.73,26.85,26.85,0,0,1,12.67,3,28.76,28.76,0,0,1,10,8.94v-37H474.06v26.54h10.3l18,18,18-18h10.16v10.94L512.89,364.8l17.59,17.59v10.95H520.31l-18-18-18,18H473.42v-.09H459.87v-5.63a29.26,29.26,0,0,1-44.95-10.47,29.24,29.24,0,0,1-44.28,11v29.28H918.77a52.8,52.8,0,0,0,52.8-52.8v-2.06A52.8,52.8,0,0,0,918.77,309.74ZM544.5,393.19h-7.32V336.31h7.32Zm.58-63.78a6,6,0,0,1-8.48-8.52,5.95,5.95,0,0,1,8.48,0,6,6,0,0,1,0,8.52Zm55.74,63.78H593.5V366.06c0-6.56-.27-10.92-.82-13.13a14.39,14.39,0,0,0-4.88-8.49,14.73,14.73,0,0,0-9.41-2.84,18.06,18.06,0,0,0-11.9,4.39,20.57,20.57,0,0,0-6.92,10.87q-1,4.23-1,15.48v20.85h-7.32V336.31h7.32v10.19a30.66,30.66,0,0,1,9.72-8.76,24,24,0,0,1,11.61-2.89,20.2,20.2,0,0,1,11.32,3.24,19.33,19.33,0,0,1,7.29,8.73q2.35,5.49,2.35,17.09Zm119.21-29q0,11.75-2.75,17.72a20.91,20.91,0,0,1-8.26,9.33q-5.52,3.37-13.82,3.37t-13.88-3.37a20.75,20.75,0,0,1-8.31-9.41q-2.75-6-2.74-18.17V336.31h7.32v26.55c0,6.48.34,10.94,1,13.38a14.92,14.92,0,0,0,6,8.26,18.18,18.18,0,0,0,10.55,3,17.84,17.84,0,0,0,10.39-2.94,15.16,15.16,0,0,0,5.89-7.77c.73-2.19,1.1-6.85,1.1-14V336.31H720Zm31.22,25.56a16.79,16.79,0,0,1-12.3,4.85,21.39,21.39,0,0,1-9.4-2.14,20.29,20.29,0,0,1-7.41-5.91l4.6-5.22q5.61,6.33,11.89,6.33a10.71,10.71,0,0,0,7.49-2.82,8.73,8.73,0,0,0,3.1-6.63,8.48,8.48,0,0,0-2-5.59q-2-2.41-9.22-6.07-7.7-4-10.48-7.83a14.82,14.82,0,0,1-2.78-8.85,14.35,14.35,0,0,1,4.43-10.76,15.39,15.39,0,0,1,11.18-4.29q7.85,0,15.81,7.68l-4.7,4.87q-5.87-5.7-11.48-5.7a8.68,8.68,0,0,0-6.1,2.35,7.26,7.26,0,0,0-2.54,5.49,8.09,8.09,0,0,0,2.1,5.27q2.09,2.57,8.8,6,8.18,4.23,11.11,8.15a14.88,14.88,0,0,1,2.88,8.94A16.06,16.06,0,0,1,751.25,389.79ZM824.85,343a16.59,16.59,0,0,0-5-1,16.19,16.19,0,0,0-9.2,3q-4.43,3-6.75,9.33-1.77,4.87-1.77,19.65v19.24h-8.18V336.31h8.18v8.3a31.13,31.13,0,0,1,9.2-7.33,22.16,22.16,0,0,1,10.09-2.43,21.4,21.4,0,0,1,8.45,1.94Zm16.23,50.24h-7.32V336.31h7.32Zm.58-63.78a5.83,5.83,0,0,1-4.26,1.77,6,6,0,0,1-6-6,5.83,5.83,0,0,1,1.77-4.28,5.71,5.71,0,0,1,4.22-1.78,5.78,5.78,0,0,1,4.26,1.78,6,6,0,0,1,0,8.52Zm63.45,63.78H897.9v-9.78a31.18,31.18,0,0,1-10.32,8.41,28.86,28.86,0,0,1-33.14-5.92,29.38,29.38,0,0,1-8.55-21.31,28.83,28.83,0,0,1,8.63-21,28.12,28.12,0,0,1,20.75-8.73,26.83,26.83,0,0,1,12.67,3,28.8,28.8,0,0,1,10,8.94V336.31h7.21Z" transform="translate(-304.17 -309.74)"/><path class="cls-3" d="M372.75,365.31A15.35,15.35,0,1,0,388.1,350,15.36,15.36,0,0,0,372.75,365.31Z" transform="translate(-304.17 -309.74)"/><path class="cls-3" d="M635.21,341.9a22.1,22.1,0,0,0-19.5,11.43,23.05,23.05,0,0,0,0,23,22.4,22.4,0,0,0,8.27,8.54,21.59,21.59,0,0,0,11.15,3.06,22.89,22.89,0,0,0,11.38-3,21.14,21.14,0,0,0,8.27-8.19,23.41,23.41,0,0,0,2.9-11.65,22.61,22.61,0,0,0-6.5-16.49A21.53,21.53,0,0,0,635.21,341.9Z" transform="translate(-304.17 -309.74)"/></g></g></g></svg>